<?xml version="1.0" encoding="UTF-8"?>
<!DOCTYPE svg PUBLIC "-//W3C//DTD SVG 1.1//EN" "http://www.w3.org/Graphics/SVG/1.1/DTD/svg11.dtd">
<!-- Creator: CorelDRAW -->
<svg xmlns="http://www.w3.org/2000/svg" xml:space="preserve" width="2048px" height="2048px" style="shape-rendering:geometricPrecision; text-rendering:geometricPrecision; image-rendering:optimizeQuality; fill-rule:evenodd; clip-rule:evenodd"
viewBox="0 0 2048 2048"
 xmlns:xlink="http://www.w3.org/1999/xlink">
 <defs>
  <style type="text/css">
   <![CDATA[
    .fil2 {fill:none}
    .fil5 {fill:#546E7A}
    .fil1 {fill:#5C6BC0}
    .fil0 {fill:#7986CB}
    .fil4 {fill:#FFFFFE}
    .fil3 {fill:#FFECB3;fill-rule:nonzero}
   ]]>
  </style>
   <clipPath id="id0">
    <path d="M1024 -0.0011811c565.539,0 1024,458.462 1024,1024 0,565.539 -458.462,1024 -1024,1024 -565.539,0 -1024,-458.462 -1024,-1024 0,-565.539 458.462,-1024 1024,-1024z"/>
   </clipPath>
 </defs>
 <g id="Layer_x0020_1">
  <metadata id="CorelCorpID_0Corel-Layer"/>
  <path class="fil0" d="M1024 -0.0011811c565.539,0 1024,458.462 1024,1024 0,565.539 -458.462,1024 -1024,1024 -565.539,0 -1024,-458.462 -1024,-1024 0,-565.539 458.462,-1024 1024,-1024z"/>
  <g style="clip-path:url(#id0)">
   <g id="_300474032">
    <g>
     <polygon id="_3603709761" class="fil1" points="1111.86,688.72 2247.74,1824.6 2249.94,1827 2252.09,1829.45 2254.19,1831.93 2256.24,1834.47 2258.23,1837.04 2260.18,1839.66 2262.07,1842.32 2263.91,1845.02 2265.69,1847.76 2267.42,1850.54 2269.09,1853.35 2270.7,1856.21 2272.26,1859.1 2273.76,1862.03 2275.2,1865 2276.58,1867.99 2277.9,1871.03 2279.15,1874.09 2280.35,1877.19 2281.48,1880.32 2282.55,1883.48 2283.55,1886.67 2284.49,1889.9 2285.37,1893.14 2286.17,1896.42 2286.91,1899.73 2287.58,1903.06 2288.18,1906.41 2288.71,1909.79 2289.17,1913.2 1153.29,777.317 1152.83,773.912 1152.3,770.531 1151.7,767.174 1151.03,763.843 1150.29,760.54 1149.48,757.262 1148.61,754.013 1147.67,750.792 1146.67,747.601 1145.6,744.44 1144.47,741.309 1143.27,738.211 1142.02,735.145 1140.7,732.112 1139.32,729.113 1137.88,726.148 1136.38,723.22 1134.82,720.328 1133.21,717.472 1131.54,714.654 1129.81,711.875 1128.03,709.134 1126.19,706.436 1124.3,703.776 1122.35,701.158 1120.36,698.584 1118.31,696.051 1116.21,693.563 1114.06,691.119 "/>
     <polygon id="_360371360" class="fil1" points="1218.54,812.593 2354.42,1948.48 2355.68,1949.87 2356.93,1951.29 2358.14,1952.74 2359.34,1954.2 2360.51,1955.68 2361.66,1957.18 2362.78,1958.71 2363.88,1960.25 2364.95,1961.81 2365.99,1963.39 2367.02,1964.99 2368.01,1966.6 2368.98,1968.24 2369.92,1969.89 2370.84,1971.56 2371.73,1973.25 2372.58,1974.95 2373.42,1976.67 2374.22,1978.41 2375,1980.16 2375.75,1981.93 2376.47,1983.71 2377.16,1985.51 2377.82,1987.32 2378.45,1989.15 2379.05,1990.99 2379.62,1992.85 2380.16,1994.72 2380.67,1996.6 1244.78,860.722 1244.28,858.838 1243.74,856.968 1243.17,855.112 1242.57,853.269 1241.94,851.441 1241.28,849.627 1240.59,847.828 1239.87,846.044 1239.12,844.276 1238.34,842.523 1237.54,840.787 1236.7,839.066 1235.84,837.363 1234.96,835.677 1234.04,834.007 1233.1,832.354 1232.13,830.72 1231.13,829.104 1230.11,827.506 1229.07,825.925 1227.99,824.365 1226.9,822.823 1225.77,821.301 1224.63,819.799 1223.46,818.317 1222.26,816.855 1221.04,815.412 1219.8,813.992 "/>
     <polygon id="_360371888" class="fil1" points="1265.85,858.255 2401.73,1994.14 2401.55,1994.13 2401.28,1994.12 2401,1994.11 2400.77,1994.1 2400.66,1994.1 1264.78,858.217 1264.89,858.222 1265.12,858.229 1265.4,858.236 1265.67,858.245 "/>
     <polygon id="_360371792" class="fil1" points="1332.51,887.368 2468.39,2023.25 2469.84,2024.85 2471.24,2026.48 2472.61,2028.15 2473.93,2029.85 2475.22,2031.59 2476.46,2033.35 2477.67,2035.15 2478.83,2036.98 2479.95,2038.83 2481.02,2040.72 2482.05,2042.63 2483.04,2044.57 2483.98,2046.54 2484.88,2048.54 2485.73,2050.56 2486.53,2052.61 2487.28,2054.68 2487.99,2056.77 2488.64,2058.89 2489.24,2061.03 2489.8,2063.19 2490.3,2065.38 2490.75,2067.58 2491.15,2069.8 2491.49,2072.04 2491.78,2074.3 2492.01,2076.58 2492.19,2078.88 2492.31,2081.19 2492.37,2083.52 1356.49,947.633 1356.43,945.307 1356.31,942.995 1356.13,940.7 1355.9,938.422 1355.61,936.161 1355.26,933.92 1354.87,931.697 1354.42,929.493 1353.92,927.31 1353.36,925.149 1352.76,923.009 1352.1,920.891 1351.4,918.796 1350.65,916.725 1349.85,914.678 1349,912.657 1348.1,910.661 1347.16,908.692 1346.17,906.75 1345.14,904.835 1344.07,902.95 1342.95,901.093 1341.79,899.266 1340.58,897.47 1339.34,895.704 1338.05,893.97 1336.72,892.269 1335.36,890.601 1333.95,888.968 "/>
     <polygon id="_360371720" class="fil1" points="1356.49,947.633 2492.37,2083.52 2492.41,2084.86 1356.53,948.979 "/>
     <polygon id="_360371672" class="fil1" points="1356.58,947.915 2492.46,2083.8 2492.46,2083.87 2492.47,2084.2 2492.47,2084.86 1356.59,948.979 1356.58,948.322 1356.58,947.99 "/>
     <polygon id="_360371984" class="fil1" points="1356.59,948.979 2492.47,2084.86 2492.46,2086.13 2492.43,2087.4 2492.39,2088.66 2492.33,2089.92 2492.25,2091.17 2492.16,2092.42 2492.05,2093.67 2491.92,2094.91 2491.78,2096.14 2491.62,2097.38 2491.44,2098.6 2491.25,2099.82 2491.04,2101.04 2490.82,2102.25 2490.58,2103.46 2490.32,2104.66 1354.44,968.775 1354.7,967.575 1354.94,966.369 1355.16,965.157 1355.37,963.941 1355.56,962.72 1355.74,961.494 1355.9,960.262 1356.04,959.025 1356.17,957.785 1356.28,956.54 1356.37,955.289 1356.45,954.036 1356.51,952.777 1356.55,951.516 1356.58,950.248 "/>
     <polygon id="_360372224" class="fil1" points="1494.19,994.546 2630.07,2130.43 2631.38,2131.88 2632.65,2133.37 2633.89,2134.89 2635.1,2136.44 2636.29,2138.01 2637.45,2139.62 2638.57,2141.25 2639.67,2142.91 2640.74,2144.59 2641.78,2146.3 2642.8,2148.04 2643.78,2149.79 2644.73,2151.57 2645.66,2153.37 2646.56,2155.19 2647.43,2157.04 2648.27,2158.9 2649.09,2160.78 2649.87,2162.67 2650.63,2164.58 2651.36,2166.51 2652.06,2168.46 2652.73,2170.42 2653.37,2172.39 2653.99,2174.37 2654.58,2176.37 2655.14,2178.38 2655.67,2180.39 2656.18,2182.42 2656.66,2184.46 1520.77,1048.57 1520.3,1046.54 1519.79,1044.51 1519.26,1042.49 1518.7,1040.49 1518.11,1038.49 1517.49,1036.51 1516.85,1034.53 1516.18,1032.58 1515.48,1030.63 1514.75,1028.7 1513.99,1026.79 1513.2,1024.89 1512.39,1023.01 1511.55,1021.15 1510.68,1019.31 1509.78,1017.49 1508.85,1015.69 1507.9,1013.91 1506.91,1012.15 1505.9,1010.42 1504.86,1008.71 1503.79,1007.03 1502.69,1005.37 1501.56,1003.74 1500.41,1002.13 1499.22,1000.56 1498.01,999.007 1496.77,997.489 1495.5,996.002 "/>
     <polygon id="_360372296" class="fil1" points="1520.77,1048.57 2656.66,2184.46 2658.67,2193.3 1522.78,1057.42 "/>
     <polygon id="_360372080" class="fil1" points="995.465,638.558 2131.35,1774.44 2131.2,1774.43 2130.98,1774.42 2130.88,1774.41 994.994,638.525 995.097,638.533 995.319,638.543 "/>
     <polygon id="_360372320" class="fil1" points="1582.34,1319.47 2718.22,2455.36 2718.43,2456.28 2718.62,2457.2 2718.79,2458.11 2718.96,2459.02 2719.11,2459.93 2719.24,2460.82 2719.37,2461.71 2719.47,2462.6 2719.57,2463.48 2719.65,2464.35 2719.72,2465.22 2719.78,2466.08 2719.83,2466.93 2719.86,2467.78 2719.88,2468.63 2719.88,2469.46 1584,1333.58 1584,1332.74 1583.98,1331.9 1583.94,1331.05 1583.9,1330.2 1583.84,1329.33 1583.77,1328.47 1583.69,1327.59 1583.59,1326.71 1583.48,1325.83 1583.36,1324.94 1583.23,1324.04 1583.08,1323.14 1582.91,1322.23 1582.74,1321.32 1582.55,1320.4 "/>
     <polygon id="_360371768" class="fil1" points="1584,1333.58 2719.88,2469.46 2719.86,2471.22 2719.79,2472.97 2719.67,2474.7 2719.5,2476.43 2719.28,2478.14 2719.03,2479.83 2718.72,2481.52 2718.37,2483.19 2717.98,2484.85 2717.55,2486.49 2717.07,2488.12 2716.55,2489.73 2715.99,2491.33 2715.4,2492.92 2714.76,2494.48 2714.08,2496.03 2713.36,2497.57 2712.61,2499.09 2711.82,2500.59 2710.99,2502.07 2710.13,2503.53 2709.23,2504.98 2708.3,2506.41 2707.34,2507.81 2706.34,2509.2 2705.31,2510.57 2704.25,2511.92 2703.16,2513.25 2702.03,2514.55 2700.88,2515.84 2699.7,2517.11 2698.49,2518.35 1562.61,1382.47 1563.82,1381.22 1565,1379.96 1566.15,1378.67 1567.28,1377.36 1568.37,1376.04 1569.43,1374.69 1570.46,1373.32 1571.46,1371.93 1572.42,1370.52 1573.35,1369.1 1574.25,1367.65 1575.11,1366.19 1575.94,1364.7 1576.73,1363.2 1577.48,1361.69 1578.2,1360.15 1578.88,1358.6 1579.51,1357.03 1580.11,1355.45 1580.67,1353.85 1581.19,1352.24 1581.67,1350.61 1582.1,1348.97 1582.49,1347.31 1582.84,1345.64 1583.14,1343.95 1583.4,1342.26 1583.62,1340.54 1583.78,1338.82 1583.9,1337.09 1583.98,1335.34 "/>
     <polygon id="_360373064" class="fil1" points="1562.61,1382.47 2698.49,2518.35 2697.36,2519.46 2696.21,2520.56 2695.03,2521.64 2693.83,2522.7 2692.61,2523.74 2691.36,2524.76 2690.1,2525.76 2688.81,2526.73 2687.5,2527.69 2686.18,2528.63 2684.83,2529.54 2683.47,2530.43 2682.09,2531.3 2680.7,2532.14 2679.28,2532.97 2677.86,2533.77 2676.41,2534.54 2674.95,2535.29 2673.48,2536.02 2672,2536.72 2670.5,2537.4 2668.99,2538.05 2667.47,2538.67 2665.94,2539.27 2664.39,2539.85 2662.84,2540.39 2661.28,2540.91 2659.71,2541.4 2658.14,2541.87 2656.55,2542.3 2654.96,2542.71 2653.37,2543.09 1517.48,1407.2 1519.08,1406.83 1520.67,1406.42 1522.25,1405.98 1523.83,1405.52 1525.4,1405.03 1526.96,1404.51 1528.51,1403.96 1530.05,1403.39 1531.59,1402.79 1533.11,1402.17 1534.62,1401.52 1536.11,1400.84 1537.6,1400.14 1539.07,1399.41 1540.53,1398.66 1541.97,1397.88 1543.4,1397.08 1544.81,1396.26 1546.21,1395.42 1547.59,1394.55 1548.95,1393.66 1550.3,1392.74 1551.62,1391.81 1552.93,1390.85 1554.22,1389.87 1555.48,1388.88 1556.73,1387.86 1557.95,1386.82 1559.15,1385.76 1560.33,1384.68 1561.48,1383.58 "/>
     <polygon id="_360372848" class="fil1" points="1517.48,1407.2 2653.37,2543.09 2652.14,2543.36 2650.91,2543.61 2649.69,2543.85 2648.46,2544.07 2647.24,2544.27 2646.02,2544.46 2644.8,2544.63 2643.58,2544.78 2642.37,2544.92 2641.16,2545.04 2639.95,2545.13 2638.74,2545.22 2637.54,2545.28 2636.34,2545.33 2635.15,2545.35 2633.96,2545.36 1498.08,1409.48 1499.27,1409.47 1500.46,1409.44 1501.66,1409.4 1502.86,1409.33 1504.07,1409.25 1505.27,1409.15 1506.49,1409.03 1507.7,1408.9 1508.92,1408.75 1510.14,1408.58 1511.36,1408.39 1512.58,1408.19 1513.81,1407.97 1515.03,1407.73 1516.26,1407.47 "/>
     <polygon id="_360372872" class="fil1" points="1498.08,1409.48 2633.96,2545.36 1685.8,2545.36 549.922,1409.48 "/>
     <polygon id="_360373160" class="fil1" points="549.922,1409.48 1685.8,2545.36 1684.61,2545.35 1683.42,2545.33 1682.22,2545.28 1681.02,2545.22 1679.81,2545.13 1678.61,2545.04 1677.39,2544.92 1676.18,2544.78 1674.96,2544.63 1673.74,2544.46 1672.52,2544.27 1671.3,2544.07 1670.08,2543.85 1668.85,2543.61 1667.62,2543.36 1666.4,2543.09 530.516,1407.2 531.743,1407.47 532.969,1407.73 534.195,1407.97 535.419,1408.19 536.641,1408.39 537.863,1408.58 539.083,1408.75 540.299,1408.9 541.513,1409.03 542.725,1409.15 543.933,1409.25 545.139,1409.33 546.341,1409.4 547.538,1409.44 548.732,1409.47 "/>
     <polygon id="_360373040" class="fil1" points="530.516,1407.2 1666.4,2543.09 1664.8,2542.71 1663.21,2542.3 1661.63,2541.87 1660.05,2541.4 1658.48,2540.91 1656.92,2540.39 1655.37,2539.85 1653.83,2539.27 1652.29,2538.68 1650.77,2538.05 1649.26,2537.4 1647.77,2536.72 1646.28,2536.02 1644.81,2535.29 1643.35,2534.54 1641.91,2533.77 1640.48,2532.97 1639.07,2532.14 1637.67,2531.3 1636.29,2530.43 1634.93,2529.54 1633.58,2528.63 1632.26,2527.69 1630.95,2526.74 1629.67,2525.76 1628.4,2524.76 1627.16,2523.74 491.274,1387.86 492.518,1388.88 493.784,1389.88 495.07,1390.85 496.376,1391.81 497.702,1392.74 499.046,1393.66 500.409,1394.55 501.788,1395.42 503.184,1396.26 504.598,1397.09 506.026,1397.88 507.469,1398.66 508.928,1399.41 510.4,1400.14 511.884,1400.84 513.382,1401.52 514.893,1402.17 516.414,1402.79 517.946,1403.39 519.487,1403.96 521.039,1404.51 522.599,1405.03 524.169,1405.52 525.746,1405.98 527.33,1406.42 528.919,1406.83 "/>
     <polygon id="_360372656" class="fil1" points="1522.78,1057.42 2658.67,2193.3 2718.22,2455.36 1582.34,1319.47 "/>
    </g>
    <path id="_300473576" class="fil1" d="M1107.32 684.063c24.7158,24.3378 41.4378,56.8052 45.9638,93.254 23.7012,3.88937 44.9315,15.0697 61.3182,31.2071 14.3315,14.113 24.9201,32.0351 30.1784,52.1977 6.34016,-1.48465 12.9366,-2.31614 19.7162,-2.4189l1.34646 -0.0354331 0 -0.0129921c-0.312992,-0.0283465 -2.24882,-0.0437008 0,-0.0437008 24.7996,0 47.2725,9.91654 63.6709,26.0646 16.3583,16.1091 26.5949,38.4555 26.974,63.3579l0.0354331 1.34528 0.0129921 0c0.0295276,-0.295276 0.0448819,-2.24528 0.0448819,0 0,6.78426 -0.740552,13.4091 -2.14606,19.7965l82.0713 0c22.5626,0 40.8414,8.80512 54.9945,22.9571 14.6504,14.6516 24.3272,35.0894 29.2689,56.8406l2.01024 8.84646 59.5571 262.055c1.12441,4.94882 1.65945,9.65552 1.65945,14.1071 0,18.8126 -8.34686,35.7473 -21.3898,48.8847 -11.9209,12.0083 -28.0713,20.8606 -45.1276,24.737 -6.54331,1.48701 -13.0748,2.27835 -19.4055,2.27835l-948.157 0c-6.33071,0 -12.861,-0.791339 -19.4055,-2.27835 -17.0575,-3.8752 -33.2067,-12.7287 -45.1276,-24.7358 -13.0429,-13.1374 -21.3898,-30.0733 -21.3898,-48.8859 0,-4.45158 0.53504,-9.15827 1.65945,-14.1071l59.5571 -262.055 2.01024 -8.84646c4.94292,-21.7524 14.6185,-42.1902 29.2677,-56.8406 14.1532,-14.1532 32.4331,-22.9571 54.9957,-22.9571l80.4768 0c-0.832678,-7.99607 -0.709843,-16.3477 0.284646,-24.8977 1.93228,-16.5862 7.18347,-34.1173 15.0827,-51.2445 23.4969,-50.9504 71.7756,-99.8186 126.725,-110.393 4.38189,-36.6733 21.098,-69.7607 45.88,-94.9205 29.0197,-29.4626 69.169,-48.0237 113.568,-48.7004 4.37481,-0.0661418 -0.347244,-0.100394 2.41772,-0.100394 43.4339,0 82.7469,17.328 111.4,45.5445z"/>
   </g>
  </g>
  <path class="fil2" d="M1024 -0.0011811c565.539,0 1024,458.462 1024,1024 0,565.539 -458.462,1024 -1024,1024 -565.539,0 -1024,-458.462 -1024,-1024 0,-565.539 458.462,-1024 1024,-1024z"/>
  <path class="fil3" d="M780.641 1038.81c-44.3221,0.675591 -70.4434,-17.498 -82.3808,-45.2162 -6.34843,-14.7402 -8.09646,-31.7894 -6.00827,-49.7115 1.9311,-16.5874 7.18347,-34.1173 15.0815,-51.2445 23.4969,-50.9516 71.7756,-99.8198 126.724,-110.395 4.38307,-36.6721 21.0992,-69.7595 45.8811,-94.9205 29.0197,-29.4603 69.1678,-48.0225 113.568,-48.6993 4.37481,-0.0661418 -0.346063,-0.100394 2.41772,-0.100394 43.4339,0 82.7481,17.328 111.4,45.5433 24.7158,24.339 41.4378,56.8063 45.9638,93.254 23.7012,3.89055 44.9303,15.0697 61.3182,31.2083 14.3315,14.113 24.9213,32.0351 30.1784,52.1977 6.34016,-1.48465 12.9366,-2.31614 19.7162,-2.4189 0.844489,-0.0129921 1.22835,-0.0248032 1.34646,-0.034252l0 -0.0141732c-0.312992,-0.0295276 -2.24882,-0.0437008 0,-0.0437008 24.7996,0 47.2725,9.91654 63.6709,26.0646 16.3583,16.1091 26.5949,38.4555 26.974,63.3567 0.0129921,0.853938 0.0248032,1.23543 0.0354331,1.34646l0.0129921 0c0.0283465,-0.295276 0.0448819,-2.24528 0.0448819,0 0,25.2366 -10.2484,48.2611 -26.8158,65.0812 -16.5284,16.7811 -39.4252,27.3555 -64.7658,27.7418 -15.1654,0.231496 -74.3953,-0.382677 -147.631,-1.13858 -118.287,-1.22244 -273.219,-2.8252 -336.733,-1.85669z"/>
  <path class="fil4" d="M611.489 968.775l825.022 0c22.5626,0 40.8414,8.80512 54.9945,22.9571 14.6504,14.6516 24.3272,35.0894 29.2689,56.8406l61.5674 270.901c1.12441,4.94882 1.65945,9.65552 1.65945,14.1071 0,18.8126 -8.34686,35.7473 -21.3898,48.8847 -11.9209,12.0083 -28.0713,20.8606 -45.1276,24.737 -6.54331,1.48701 -13.0748,2.27835 -19.4055,2.27835l-948.157 0c-6.33071,0 -12.861,-0.791339 -19.4055,-2.27835 -17.0575,-3.8752 -33.2067,-12.7287 -45.1276,-24.7358 -13.0429,-13.1374 -21.3898,-30.0733 -21.3898,-48.8859 0,-4.45158 0.53504,-9.15827 1.65945,-14.1071l61.5674 -270.901c4.94292,-21.7524 14.6185,-42.1902 29.2677,-56.8406 14.1532,-14.1532 32.4331,-22.9571 54.9957,-22.9571z"/>
  <path class="fil5" d="M611.489 968.775l825.022 0c22.5626,0 40.8414,8.80512 54.9945,22.9571 14.6504,14.6516 24.3272,35.0894 29.2689,56.8406l2.01024 8.84646 -997.569 0 2.01024 -8.84646c4.94292,-21.7524 14.6185,-42.1902 29.2677,-56.8406 14.1532,-14.1532 32.4331,-22.9571 54.9957,-22.9571z"/>
  <path class="fil5" d="M835.769 1151.12c16.389,0 31.4847,4.92166 43.3465,13.1291 7.14804,4.94646 13.1032,11.1047 17.4354,18.1122l254.899 0c4.33229,-7.00749 10.2874,-13.1658 17.4354,-18.1122 11.8618,-8.20749 26.9575,-13.1291 43.3465,-13.1291 18.9685,0 36.1453,6.51851 48.5776,17.0551 12.4335,10.539 20.1236,25.0961 20.1236,41.1721 0,7.44213 -1.74567,14.6906 -4.92284,21.4606 -0.861024,1.83662 -1.8248,3.62362 -2.88425,5.35512 1.05827,1.7315 2.02323,3.51851 2.88425,5.35512 3.17717,6.77008 4.92284,14.0185 4.92284,21.4606 0,16.076 -7.69134,30.6343 -20.1236,41.1721 -12.4323,10.5366 -29.6091,17.0551 -48.5776,17.0551 -18.5788,0 -35.4697,-6.30355 -47.8713,-16.5378 -7.22835,-5.96457 -12.9095,-13.2803 -16.4858,-21.4725l-247.748 0c-3.57638,8.19213 -9.25749,15.5079 -16.4858,21.4725 -12.4016,10.2343 -29.2925,16.5378 -47.8713,16.5378 -18.9685,0 -36.1453,-6.51851 -48.5776,-17.0551 -12.4323,-10.5378 -20.1236,-25.0961 -20.1236,-41.1721 0,-7.44213 1.74567,-14.6906 4.92284,-21.4606 0.861024,-1.83662 1.8248,-3.62362 2.88425,-5.35512 -1.05827,-1.7315 -2.02323,-3.51851 -2.88425,-5.35512 -3.17717,-6.77008 -4.92284,-14.0185 -4.92284,-21.4606 0,-16.076 7.69016,-30.6331 20.1236,-41.1721 12.4323,-10.5366 29.6091,-17.0551 48.5776,-17.0551z"/>
 </g>
</svg>
