<svg width="96" height="97" viewBox="0 0 96 97" fill="none" xmlns="http://www.w3.org/2000/svg">
<path d="M27.8949 32.5C27.8949 32.5 31.8949 38.5 47.8949 38.5C63.8949 38.5 67.8949 32.5 67.8949 32.5V72.0022C67.8949 75.5652 66.6884 79.1121 63.5877 80.8671C60.4194 82.6603 55.3518 84.5 47.8949 84.5C40.438 84.5 35.3704 82.6603 32.2021 80.8671C29.1014 79.1121 27.8949 75.5652 27.8949 72.0022V32.5Z" fill="#600A24"/>
<path fill-rule="evenodd" clip-rule="evenodd" d="M27.3153 30.5858C28.1472 30.334 29.0449 30.6484 29.5385 31.3604C29.5388 31.3608 29.5391 31.3613 29.5395 31.3618C29.5484 31.3736 29.5735 31.406 29.6166 31.4563C29.7026 31.5566 29.8612 31.729 30.1078 31.9509C30.5996 32.3936 31.4505 33.0418 32.7893 33.7112C35.4631 35.048 40.1461 36.5 47.8949 36.5C55.6437 36.5 60.3268 35.048 63.0005 33.7112C64.3393 33.0418 65.1902 32.3936 65.682 31.9509C65.9286 31.729 66.0872 31.5566 66.1733 31.4563C66.2164 31.406 66.2414 31.3736 66.2504 31.3618C66.2507 31.3613 66.251 31.3608 66.2513 31.3604C66.7449 30.6484 67.6426 30.334 68.4745 30.5858C69.318 30.8412 69.8949 31.6187 69.8949 32.5V72.0023C69.8949 75.9156 68.5674 80.3468 64.5728 82.6077C61.1046 84.5706 55.6977 86.5 47.8949 86.5C40.0921 86.5 34.6852 84.5706 31.217 82.6077C27.2224 80.3468 25.8949 75.9156 25.8949 72.0023V32.5C25.8949 31.6187 26.4718 30.8412 27.3153 30.5858ZM65.8949 34.3231C67.359 33.3039 67.8949 32.5 67.8949 32.5V72.0023C67.8949 75.5652 66.6884 79.1122 63.5877 80.8671C60.4194 82.6603 55.3518 84.5 47.8949 84.5C40.438 84.5 35.3704 82.6603 32.2021 80.8671C29.1014 79.1122 27.8949 75.5652 27.8949 72.0023V32.5C27.8949 32.5 28.4308 33.3039 29.8949 34.3231C32.4308 36.0885 37.7513 38.5 47.8949 38.5C58.0385 38.5 63.359 36.0885 65.8949 34.3231Z" fill="#27020D"/>
<path d="M67.8949 72.0022V32.5C67.8949 32.5 65.8795 35.5231 58.9877 37.2775L59.0353 82.858C60.854 82.2604 62.3613 81.561 63.5852 80.8685C66.6862 79.1139 67.8949 75.5652 67.8949 72.0022Z" fill="#4E041A"/>
<path d="M61.3564 77.8077C61.3564 78.8273 60.5299 79.6539 59.5103 79.6539C58.4907 79.6539 57.6641 78.8273 57.6641 77.8077C57.6641 76.7881 58.4907 75.9615 59.5103 75.9615C60.5299 75.9615 61.3564 76.7881 61.3564 77.8077Z" fill="#9B123C"/>
<path d="M64.9718 75.4231C64.9718 76.1878 64.3519 76.8077 63.5872 76.8077C62.8225 76.8077 62.2026 76.1878 62.2026 75.4231C62.2026 74.6584 62.8225 74.0385 63.5872 74.0385C64.3519 74.0385 64.9718 74.6584 64.9718 75.4231Z" fill="#9B123C"/>
<path d="M59.3565 72.7308C59.3565 73.4955 58.7365 74.1154 57.9718 74.1154C57.2071 74.1154 56.5872 73.4955 56.5872 72.7308C56.5872 71.9661 57.2071 71.3462 57.9718 71.3462C58.7365 71.3462 59.3565 71.9661 59.3565 72.7308Z" fill="#9B123C"/>
<path d="M64.8949 66.2693C64.8949 67.034 64.275 67.6539 63.5103 67.6539C62.7456 67.6539 62.1257 67.034 62.1257 66.2693C62.1257 65.5046 62.7456 64.8846 63.5103 64.8846C64.275 64.8846 64.8949 65.5046 64.8949 66.2693Z" fill="#9B123C"/>
<path d="M61.2026 67.6538C61.2026 68.1636 60.7893 68.5769 60.2795 68.5769C59.7697 68.5769 59.3564 68.1636 59.3564 67.6538C59.3564 67.144 59.7697 66.7307 60.2795 66.7307C60.7893 66.7307 61.2026 67.144 61.2026 67.6538Z" fill="#9B123C"/>
<path d="M64.8949 62.1153C64.8949 62.6251 64.4816 63.0384 63.9718 63.0384C63.462 63.0384 63.0488 62.6251 63.0488 62.1153C63.0488 61.6055 63.462 61.1923 63.9718 61.1923C64.4816 61.1923 64.8949 61.6055 64.8949 62.1153Z" fill="#9B123C"/>
<path d="M63.8949 70.8077C63.8949 71.5724 63.275 72.1923 62.5103 72.1923C61.7456 72.1923 61.1257 71.5724 61.1257 70.8077C61.1257 70.043 61.7456 69.4231 62.5103 69.4231C63.275 69.4231 63.8949 70.043 63.8949 70.8077Z" fill="#9B123C"/>
<path d="M62.1257 62.5769C62.1257 63.3416 61.5058 63.9615 60.7411 63.9615C59.9764 63.9615 59.3564 63.3416 59.3564 62.5769C59.3564 61.8122 59.9764 61.1923 60.7411 61.1923C61.5058 61.1923 62.1257 61.8122 62.1257 62.5769Z" fill="#9B123C"/>
<path d="M63.9718 58.4231C63.9718 58.9329 63.5586 59.3462 63.0488 59.3462C62.539 59.3462 62.1257 58.9329 62.1257 58.4231C62.1257 57.9133 62.539 57.5 63.0488 57.5C63.5586 57.5 63.9718 57.9133 63.9718 58.4231Z" fill="#9B123C"/>
<path d="M55.7411 78.6538C55.7411 79.1636 55.3278 79.5769 54.818 79.5769C54.3082 79.5769 53.8949 79.1636 53.8949 78.6538C53.8949 78.144 54.3082 77.7307 54.818 77.7307C55.3278 77.7307 55.7411 78.144 55.7411 78.6538Z" fill="#9B123C"/>
<path fill-rule="evenodd" clip-rule="evenodd" d="M33.8949 45.5C35.5518 45.5 36.8949 46.8431 36.8949 48.5V72.5C36.8949 74.1569 35.5518 75.5 33.8949 75.5C32.2381 75.5 30.8949 74.1569 30.8949 72.5V48.5C30.8949 46.8431 32.2381 45.5 33.8949 45.5Z" fill="#D2426E"/>
<path fill-rule="evenodd" clip-rule="evenodd" d="M32.8949 47C33.7233 47 34.3949 47.6716 34.3949 48.5V52.5C34.3949 53.3284 33.7233 54 32.8949 54C32.0665 54 31.3949 53.3284 31.3949 52.5V48.5C31.3949 47.6716 32.0665 47 32.8949 47Z" fill="#FF759F"/>
<path d="M27.8949 50.5C27.8949 50.5 31.8949 56.5 47.8949 56.5C63.8949 56.5 67.8949 50.5 67.8949 50.5V66.1256C67.8949 67.0163 67.5999 67.8813 66.9411 68.4807C64.8238 70.4072 59.017 74.5 47.8949 74.5C36.7728 74.5 30.966 70.4072 28.8487 68.4807C28.1899 67.8813 27.8949 67.0163 27.8949 66.1256V50.5Z" fill="#C89A65"/>
<path fill-rule="evenodd" clip-rule="evenodd" d="M29.9574 54.4375C30.5097 54.4375 30.9574 54.8852 30.9574 55.4375V65.5625C30.9574 66.1148 30.5097 66.5625 29.9574 66.5625C29.4051 66.5625 28.9574 66.1148 28.9574 65.5625V55.4375C28.9574 54.8852 29.4051 54.4375 29.9574 54.4375Z" fill="#E3B681"/>
<path d="M67.8949 66.1256V50.5C67.8949 50.5 65.8724 53.5338 58.9509 55.2869V72.8856C63.1318 71.5263 65.6815 69.626 66.9375 68.484C67.5965 67.8847 67.8949 67.0163 67.8949 66.1256Z" fill="#AC804D"/>
<path fill-rule="evenodd" clip-rule="evenodd" d="M74.7886 25.4535C74.9868 25.969 74.7297 26.5476 74.2142 26.7459C73.4202 27.0513 72.1874 27.5623 71.0811 28.0972C70.527 28.3651 70.0208 28.6313 69.6229 28.874C69.424 28.9954 69.2638 29.1038 69.1433 29.1968C69.0836 29.2429 69.0388 29.2813 69.0066 29.3117C68.9757 29.3408 68.9632 29.3561 68.9621 29.3574C68.962 29.3575 68.962 29.3575 68.9621 29.3575C68.6266 29.7962 67.999 29.8799 67.5603 29.5444C67.1216 29.2089 67.0379 28.5813 67.3734 28.1426C67.6605 27.7671 68.1435 27.4337 68.5813 27.1666C69.0568 26.8766 69.6272 26.5787 70.2105 26.2966C71.3793 25.7315 72.6653 25.1988 73.4962 24.8792C74.0117 24.6809 74.5903 24.9381 74.7886 25.4535Z" fill="#7B5A18"/>
<path fill-rule="evenodd" clip-rule="evenodd" d="M76.2124 30.2946C71.3333 28.2103 66.4293 28.9252 64.6714 29.5111C64.1475 29.6858 63.5812 29.4026 63.4065 28.8787C63.2319 28.3547 63.5151 27.7884 64.039 27.6138C66.1561 26.9081 71.5772 26.1396 76.9981 28.4554C77.5059 28.6723 77.7418 29.2599 77.5248 29.7678C77.3079 30.2757 76.7203 30.5115 76.2124 30.2946Z" fill="#7B5A18"/>
<path d="M24.5824 33.25C25.7699 31.875 27.4574 28.75 27.4574 28.75L68.3324 29.5625C68.3324 29.5625 74.1449 33.875 72.7699 36.5C71.8491 38.2578 69.0543 34.4191 67.5824 35.75C66.1408 37.0534 68.0416 39.3414 66.5824 40.625C64.5409 42.4209 62.5016 37.914 59.8949 38.6875C57.4783 39.4046 57.9458 42.9723 55.4574 43.375C52.9229 43.7851 52.2657 40.4037 49.7074 40.1875C46.8711 39.9478 45.7516 43.4804 42.9574 42.9375C40.7483 42.5082 40.5253 40.0057 38.3324 39.5C36.1028 38.9858 34.6928 41.509 32.5824 40.625C30.9726 39.9507 30.5819 38.3306 29.0824 37.4375C27.0925 36.2522 25.2699 38.25 23.8324 37.4375C22.3564 36.6033 23.0621 35.0104 24.5824 33.25Z" fill="#FC72BC"/>
<path fill-rule="evenodd" clip-rule="evenodd" d="M25.6977 27.7995C26.0537 27.1404 26.7482 26.7355 27.4972 26.7504L68.3721 27.5629C68.7877 27.5712 69.1903 27.7087 69.5241 27.9563L68.3324 29.5625L27.4574 28.75C27.4574 28.75 25.7699 31.875 24.5824 33.25L23.0688 31.9428C23.5367 31.4009 24.1775 30.4126 24.749 29.4575C25.0226 29.0002 25.2614 28.5828 25.4317 28.2798C25.5167 28.1285 25.5843 28.0066 25.6301 27.9233L25.6818 27.8288L25.6944 27.8056L25.6977 27.7995C25.6977 27.7996 25.6977 27.7995 25.6977 27.7995ZM69.0597 37.8331C69.1575 37.8881 69.2657 37.9498 69.3861 38.019C69.4101 38.0328 69.4354 38.0474 69.4619 38.0627C69.8859 38.3076 70.6131 38.7276 71.345 38.8898C71.783 38.9869 72.4108 39.0404 73.0752 38.779C73.7784 38.5024 74.2518 37.9812 74.5416 37.428C75.297 35.9859 74.9462 34.5124 74.4774 33.481C74.0006 32.432 73.2446 31.4676 72.5452 30.6999C71.8286 29.9134 71.0773 29.2323 70.5151 28.754C70.2314 28.5127 69.9899 28.318 69.8168 28.1817C69.7302 28.1134 69.6603 28.0596 69.6105 28.0216C69.5856 28.0025 69.5657 27.9875 69.5512 27.9766L69.5334 27.9633L69.5277 27.959L69.5241 27.9563C69.5237 27.956 69.5241 27.9563 68.3324 29.5625C68.3324 29.5625 74.1449 33.875 72.7699 36.5C72.3038 37.3898 71.3577 36.8457 70.3459 36.2639C69.3588 35.6963 68.3093 35.0928 67.5824 35.75C66.8633 36.4002 66.9759 37.2953 67.0882 38.1886C67.2011 39.0861 67.3137 39.9817 66.5824 40.625C65.5104 41.5681 64.4389 40.7731 63.2856 39.9175C62.2427 39.1437 61.1328 38.3202 59.8949 38.6875C58.7174 39.0369 58.2247 40.063 57.7411 41.0701C57.2321 42.1299 56.7333 43.1685 55.4574 43.375C54.1199 43.5914 53.3052 42.7519 52.458 41.8789C51.6998 41.0977 50.9156 40.2896 49.7074 40.1875C48.3255 40.0707 47.3511 40.8495 46.392 41.616C45.3826 42.4227 44.3902 43.2159 42.9574 42.9375C41.8409 42.7206 41.2318 41.974 40.6192 41.2234C40.0197 40.4887 39.417 39.7501 38.3324 39.5C37.2653 39.2539 36.386 39.7036 35.5277 40.1425C34.5927 40.6206 33.6828 41.0859 32.5824 40.625C31.7148 40.2616 31.2013 39.6234 30.6774 38.9724C30.2293 38.4155 29.7737 37.8492 29.0824 37.4375C27.9981 36.7916 26.9635 37.0909 26.0138 37.3656C25.2206 37.595 24.4866 37.8073 23.8324 37.4375C22.3564 36.6033 23.0621 35.0104 24.5824 33.25L23.0688 31.9428C22.2728 32.8645 21.4471 34.0007 21.1444 35.2026C20.9816 35.8491 20.9405 36.6322 21.2562 37.4215C21.5777 38.2256 22.1739 38.7975 22.8483 39.1786C23.717 39.6696 24.5857 39.6848 25.2467 39.5956C25.7426 39.5288 26.2682 39.3754 26.6193 39.2729C26.6838 39.2541 26.7425 39.2369 26.7939 39.2224C27.6312 38.9859 27.8397 39.0252 28.0589 39.1558C28.4328 39.3785 28.6746 39.6773 29.2069 40.335L29.2364 40.3715C29.7363 40.9893 30.5048 41.9231 31.8097 42.4697C33.7639 43.2883 35.4082 42.449 36.2688 42.0097C36.2865 42.0007 36.3037 41.9919 36.3207 41.9832C37.37 41.4486 37.6014 41.3839 37.883 41.4489C38.222 41.527 38.4312 41.7056 39.0894 42.512C39.1086 42.5356 39.1284 42.5599 39.1487 42.5848C39.7308 43.3005 40.7427 44.5446 42.5759 44.9008C44.9196 45.3562 46.5627 44.041 47.4881 43.3002C47.5141 43.2794 47.5396 43.2591 47.5644 43.2392C48.6766 42.3513 49.0429 42.1385 49.539 42.1804C49.9327 42.2137 50.2059 42.4348 51.1596 43.4126L51.19 43.4438C51.9515 44.225 53.4192 45.7308 55.7769 45.3493C58.0931 44.9745 59.0069 43.0603 59.4562 42.1189C59.4733 42.0831 59.4897 42.0488 59.5055 42.016C60.0953 40.7895 60.2498 40.6684 60.4638 40.6049C60.4643 40.6047 60.4648 40.6046 60.4655 40.6043C60.4811 40.5988 60.5713 40.5666 60.8804 40.7163C61.2328 40.8871 61.5884 41.1501 62.1268 41.5482C62.1708 41.5807 62.216 41.6142 62.2625 41.6485L62.28 41.6614C62.7786 42.0297 63.5686 42.6132 64.4607 42.8846C64.9595 43.0363 65.5544 43.1148 66.2 42.9884C66.8524 42.8607 67.4221 42.5501 67.9034 42.1267C69.456 40.7608 69.1955 38.8455 69.0904 38.0734C69.084 38.0264 69.0782 37.9836 69.0734 37.9454C69.0685 37.9063 69.0639 37.8689 69.0597 37.8331Z" fill="#8F1959"/>
<path d="M67.6586 35.7876C66.2374 37.0726 68.1113 39.3282 66.6727 40.5938C63.6392 37.7683 60.4224 36.3367 59.1932 35.974C61.8311 35.1254 67.495 32.1317 68.398 29.6875C68.398 29.6875 74.1284 33.9391 72.7729 36.527C71.8651 38.26 69.1098 34.4755 67.6586 35.7876Z" fill="#E7409A"/>
<path d="M47.8949 35.5C58.9406 35.5 67.8949 31.9183 67.8949 27.5V21.5625H27.8949V27.5C27.8949 31.9183 36.8492 35.5 47.8949 35.5Z" fill="#E7409A"/>
<path fill-rule="evenodd" clip-rule="evenodd" d="M25.8949 21.5625C25.8949 20.4579 26.7903 19.5625 27.8949 19.5625H67.8949C68.9995 19.5625 69.8949 20.4579 69.8949 21.5625V27.5C69.8949 29.3317 68.9586 30.8744 67.6974 32.0671C66.4405 33.2558 64.7289 34.2342 62.7798 35.0138C58.8705 36.5775 53.6071 37.5 47.8949 37.5C42.1828 37.5 36.9193 36.5775 33.01 35.0138C31.0609 34.2342 29.3494 33.2558 28.0924 32.0671C26.8312 30.8744 25.8949 29.3317 25.8949 27.5V21.5625ZM67.8949 27.5C67.8949 31.9183 58.9406 35.5 47.8949 35.5C36.8492 35.5 27.8949 31.9183 27.8949 27.5V21.5625H67.8949V27.5Z" fill="#901959"/>
<path fill-rule="evenodd" clip-rule="evenodd" d="M29.8445 28.9576C30.006 28.7336 30.3185 28.683 30.5425 28.8444C31.3841 29.4512 34.0413 30.9414 37.6807 31.8267C37.9491 31.892 38.1137 32.1624 38.0484 32.4307C37.9831 32.699 37.7127 32.8636 37.4444 32.7984C33.6839 31.8837 30.9077 30.3405 29.9577 29.6556C29.7337 29.4941 29.683 29.1816 29.8445 28.9576Z" fill="#FC72BC"/>
<path d="M67.8949 21.5C67.8949 25.9183 58.9406 29.5 47.8949 29.5C36.8492 29.5 27.8949 25.9183 27.8949 21.5C27.8949 17.0817 36.8492 13.5 47.8949 13.5C58.9406 13.5 67.8949 17.0817 67.8949 21.5Z" fill="#FC72BC"/>
<path fill-rule="evenodd" clip-rule="evenodd" d="M62.7798 29.0138C58.8705 30.5775 53.6071 31.5 47.8949 31.5C42.1828 31.5 36.9193 30.5775 33.01 29.0138C31.0609 28.2342 29.3494 27.2558 28.0924 26.0671C26.8312 24.8744 25.8949 23.3317 25.8949 21.5C25.8949 19.6683 26.8312 18.1256 28.0924 16.9329C29.3494 15.7442 31.0609 14.7658 33.01 13.9862C36.9193 12.4225 42.1828 11.5 47.8949 11.5C53.6071 11.5 58.8705 12.4225 62.7798 13.9862C64.7289 14.7658 66.4405 15.7442 67.6974 16.9329C68.9586 18.1256 69.8949 19.6683 69.8949 21.5C69.8949 23.3317 68.9586 24.8744 67.6974 26.0671C66.4405 27.2558 64.7289 28.2342 62.7798 29.0138ZM47.8949 29.5C58.9406 29.5 67.8949 25.9183 67.8949 21.5C67.8949 17.0817 58.9406 13.5 47.8949 13.5C36.8492 13.5 27.8949 17.0817 27.8949 21.5C27.8949 25.9183 36.8492 29.5 47.8949 29.5Z" fill="#8F1959"/>
<path fill-rule="evenodd" clip-rule="evenodd" d="M53.3956 59.5578C53.5505 59.9777 53.4076 60.4494 53.0456 60.7127C52.4924 61.115 50.8694 63.1989 51.3878 67.5352C51.4534 68.0836 51.062 68.5813 50.5136 68.6469C49.9653 68.7124 49.4676 68.3211 49.402 67.7727C49.0626 64.9342 49.5237 62.7704 50.2209 61.2755C49.4894 61.4471 48.7081 61.6796 47.95 61.9836C46.2422 62.6687 44.8444 63.639 44.2324 64.9024C43.9916 65.3994 43.3935 65.6072 42.8965 65.3664C42.3994 65.1257 42.1917 64.5276 42.4324 64.0305C43.3705 62.094 45.3373 60.8767 47.2054 60.1274C49.103 59.3663 51.0986 59.0072 52.3794 58.907C52.8256 58.8721 53.2407 59.1379 53.3956 59.5578Z" fill="#7A4C18"/>
<path d="M45.8949 65.3568C45.8949 67.2401 44.4119 68.7668 42.5824 68.7668C40.753 68.7668 39.2699 67.2401 39.2699 65.3568C39.2699 63.4734 40.753 61.9467 42.5824 61.9467C44.4119 61.9467 45.8949 63.4734 45.8949 65.3568Z" fill="#9C133C"/>
<path fill-rule="evenodd" clip-rule="evenodd" d="M49.8942 57.5733C50.406 57.3658 50.9892 57.6125 51.1967 58.1243C51.188 58.1029 51.1895 58.1045 51.2062 58.1219C51.2868 58.2058 51.7193 58.6563 53.0512 58.6563C53.6035 58.6563 54.0512 59.104 54.0512 59.6563C54.0512 60.2086 53.6035 60.6563 53.0512 60.6563C50.9595 60.6563 49.7063 59.7714 49.3432 58.8757C49.1357 58.3639 49.3824 57.7808 49.8942 57.5733Z" fill="#7A4C18"/>
<path d="M54.1449 67.5968C54.1449 69.6046 52.5639 71.2321 50.6137 71.2321C48.6634 71.2321 47.0824 69.6046 47.0824 67.5968C47.0824 65.5891 48.6634 63.9615 50.6137 63.9615C52.5639 63.9615 54.1449 65.5891 54.1449 67.5968Z" fill="#9C133C"/>
<path d="M63.4412 19.5938C63.4412 20.0943 62.6149 20.5 61.5956 20.5C60.5763 20.5 59.75 20.0943 59.75 19.5938C59.75 19.0932 60.5763 18.6875 61.5956 18.6875C62.6149 18.6875 63.4412 19.0932 63.4412 19.5938Z" fill="#D83F91"/>
<path d="M53.3162 25.9688C53.3162 26.4693 52.4899 26.875 51.4706 26.875C50.4513 26.875 49.625 26.4693 49.625 25.9688C49.625 25.4682 50.4513 25.0625 51.4706 25.0625C52.4899 25.0625 53.3162 25.4682 53.3162 25.9688Z" fill="#D83F91"/>
<path d="M58.3125 21.0938C58.3125 21.5943 57.4861 22 56.4668 22C55.4475 22 54.6212 21.5943 54.6212 21.0938C54.6212 20.5932 55.4475 20.1875 56.4668 20.1875C57.4861 20.1875 58.3125 20.5932 58.3125 21.0938Z" fill="#D83F91"/>
<path d="M58.6307 17.5938C58.6307 17.8872 58.1463 18.125 57.5487 18.125C56.9512 18.125 56.4668 17.8872 56.4668 17.5938C56.4668 17.3003 56.9512 17.0625 57.5487 17.0625C58.1463 17.0625 58.6307 17.3003 58.6307 17.5938Z" fill="#D83F91"/>
<path d="M56.785 24.5312C56.785 24.8247 56.3007 25.0625 55.7031 25.0625C55.1056 25.0625 54.6212 24.8247 54.6212 24.5312C54.6212 24.2378 55.1056 24 55.7031 24C56.3007 24 56.785 24.2378 56.785 24.5312Z" fill="#D83F91"/>
<path d="M52.91 23.2812C52.91 23.5747 52.4257 23.8125 51.8281 23.8125C51.2306 23.8125 50.7462 23.5747 50.7462 23.2812C50.7462 22.9878 51.2306 22.75 51.8281 22.75C52.4257 22.75 52.91 22.9878 52.91 23.2812Z" fill="#D83F91"/>
<path d="M47.1288 26.875C47.1288 27.1684 46.6444 27.4062 46.0469 27.4062C45.4494 27.4062 44.965 27.1684 44.965 26.875C44.965 26.5816 45.4494 26.3438 46.0469 26.3438C46.6444 26.3438 47.1288 26.5816 47.1288 26.875Z" fill="#D83F91"/>
<path d="M45.856 24.8125C45.856 25.0541 45.457 25.25 44.965 25.25C44.4729 25.25 44.074 25.0541 44.074 24.8125C44.074 24.5709 44.4729 24.375 44.965 24.375C45.457 24.375 45.856 24.5709 45.856 24.8125Z" fill="#D83F91"/>
<path d="M55.0739 19.2188C55.0739 19.5122 54.5895 19.75 53.9919 19.75C53.3944 19.75 52.91 19.5122 52.91 19.2188C52.91 18.9253 53.3944 18.6875 53.9919 18.6875C54.5895 18.6875 55.0739 18.9253 55.0739 19.2188Z" fill="#D83F91"/>
<path d="M49.0819 22.75C49.0819 23.0434 48.5975 23.2812 47.9999 23.2812C47.4024 23.2812 46.918 23.0434 46.918 22.75C46.918 22.4566 47.4024 22.2188 47.9999 22.2188C48.5975 22.2188 49.0819 22.4566 49.0819 22.75Z" fill="#D83F91"/>
<path d="M65.605 21.625C65.605 21.9184 65.1206 22.1562 64.5231 22.1562C63.9256 22.1562 63.4412 21.9184 63.4412 21.625C63.4412 21.3316 63.9256 21.0938 64.5231 21.0938C65.1206 21.0938 65.605 21.3316 65.605 21.625Z" fill="#D83F91"/>
<path d="M63.4038 24C63.4038 24.6904 62.2641 25.25 60.8581 25.25C59.4522 25.25 58.3125 24.6904 58.3125 24C58.3125 23.3096 59.4522 22.75 60.8581 22.75C62.2641 22.75 63.4038 23.3096 63.4038 24Z" fill="#D83F91"/>
</svg>
