<svg xmlns="http://www.w3.org/2000/svg" viewBox="0 0 64 64"><g id="_16-Discount" data-name="16-Discount"><path d="M55.964,33H51V3a2,2,0,0,0-2-2H15a2,2,0,0,0-2,2V33H8.036A2.077,2.077,0,0,0,6.5,36.43L30.465,62.285a2.006,2.006,0,0,0,3.07,0L57.5,36.43A2.077,2.077,0,0,0,55.964,33Z" style="fill:#ffa930"/><path d="M57.357,33.585l-23.822,25.7a2.006,2.006,0,0,1-3.07,0L6.643,33.585A2.085,2.085,0,0,0,6.5,36.43L30.465,62.285a2.006,2.006,0,0,0,3.07,0L57.5,36.43A2.085,2.085,0,0,0,57.357,33.585Z" style="fill:#e68c15"/><path d="M15,4H49a2,2,0,0,1,2,2V3a2,2,0,0,0-2-2H15a2,2,0,0,0-2,2V6A2,2,0,0,1,15,4Z" style="fill:#ffc568"/><rect x="12" y="26" width="2" height="2"/><path d="M58.709,33.767A3,3,0,0,0,55.964,32H52V3a3,3,0,0,0-3-3H15a3,3,0,0,0-3,3V24h2V3a1,1,0,0,1,1-1H49a1,1,0,0,1,1,1V33a1,1,0,0,0,1,1h4.964a1.025,1.025,0,0,1,.93.607,1.075,1.075,0,0,1-.127,1.144L32.773,61.638a1.016,1.016,0,0,1-1.575-.033L7.263,35.783a1.089,1.089,0,0,1-.157-1.176A1.025,1.025,0,0,1,8.036,34H13a1,1,0,0,0,1-1V30H12v2H8.036a3,3,0,0,0-2.745,1.767,3.086,3.086,0,0,0,.476,3.343L29.7,62.933a3.005,3.005,0,0,0,4.566.032L58.263,37.078A3.075,3.075,0,0,0,58.709,33.767Z"/><rect x="23.515" y="17" width="16.971" height="2" transform="translate(-3.355 27.899) rotate(-45)"/><path d="M38,23a3,3,0,1,0-3,3A3,3,0,0,0,38,23Zm-3,1a1,1,0,1,1,1-1A1,1,0,0,1,35,24Z"/><path d="M32,13a3,3,0,1,0-3,3A3,3,0,0,0,32,13Zm-4,0a1,1,0,1,1,1,1A1,1,0,0,1,28,13Z"/><path d="M21,37v4a2,2,0,0,0,2,2h4a2,2,0,0,0,2-2V33a2,2,0,0,0-2-2H23a2,2,0,0,0-2,2v2h2V33h4v8H23V37Z"/><path d="M37,33V31H32a1,1,0,0,0-1,1V43h2V37h3V35H33V33Z"/><path d="M44,33V31H39a1,1,0,0,0-1,1V43h2V37h3V35H40V33Z"/></g></svg>