<?xml version="1.0" encoding="utf-8"?>
<!-- Generator: Adobe Illustrator 16.0.0, SVG Export Plug-In . SVG Version: 6.00 Build 0)  -->
<!DOCTYPE svg PUBLIC "-//W3C//DTD SVG 1.1//EN" "http://www.w3.org/Graphics/SVG/1.1/DTD/svg11.dtd">
<svg version="1.1" id="icons" xmlns="http://www.w3.org/2000/svg" xmlns:xlink="http://www.w3.org/1999/xlink" x="0px" y="0px"
	 width="64px" height="64px" viewBox="0 0 64 64" enable-background="new 0 0 64 64" xml:space="preserve">
<g>
	<g>
		<path fill="#844747" d="M63,29v6c0,4.83-2.359,9.11-6,11.74v-6C60.641,38.11,63,33.83,63,29z"/>
	</g>
	<g>
		<path fill="#844747" d="M57,40.74v6c-2.38,1.74-5.319,2.76-8.5,2.76v-6C51.681,43.5,54.62,42.48,57,40.74z"/>
	</g>
	<g>
		<path fill="#844747" d="M48.5,43.5v6c-3.18,0-6.12-1.02-8.5-2.76v-6C42.38,42.48,45.32,43.5,48.5,43.5z"/>
	</g>
	<g>
		<path fill="#965353" d="M34,29c0-8.01,6.49-14.5,14.5-14.5S63,20.99,63,29c0,4.83-2.359,9.11-6,11.74
			c-2.38,1.74-5.319,2.76-8.5,2.76c-3.18,0-6.12-1.02-8.5-2.76C36.36,38.11,34,33.83,34,29z M37,29c0,6.351,5.15,11.5,11.5,11.5
			C54.851,40.5,60,35.351,60,29c0-6.35-5.149-11.5-11.5-11.5C42.15,17.5,37,22.65,37,29z"/>
	</g>
	<g>
		<path fill="#844747" d="M34,29c0,4.83,2.36,9.11,6,11.74v6c-3.64-2.63-6-6.91-6-11.74V29z"/>
	</g>
	<g>
		<circle fill="#E6E9ED" cx="48.5" cy="29" r="11.5"/>
	</g>
	<g>
		<path fill="#F7C292" d="M48.5,24.5c1.931,0,3.5,3.561,3.5,5.5c0,1.93-1.569,3.5-3.5,3.5c-1.93,0-3.5-1.57-3.5-3.5
			C45,28.061,46.57,24.5,48.5,24.5z"/>
	</g>
	<g>
		<path fill="#965353" d="M1.05,30.11l13.341,13.34c-3.33-0.25-6.591-1.65-9.141-4.2S1.29,33.44,1.05,30.11z"/>
	</g>
	<g>
		<path fill="#844747" d="M30,29v6c0,8-6.49,14.5-14.5,14.5S1,43,1,35v-4.939l0.05,0.05c0.24,3.33,1.65,6.59,4.2,9.14
			s5.811,3.95,9.141,4.2c2.27,0.18,4.58-0.18,6.71-1.08c1.689-0.7,3.27-1.74,4.649-3.12s2.42-2.97,3.13-4.66
			c0.74-1.79,1.11-3.689,1.11-5.59H30z"/>
	</g>
	<g>
		<path fill="#965353" d="M29.94,27.87L16.62,14.55c3.33,0.25,6.58,1.641,9.13,4.19C28.29,21.29,29.69,24.55,29.94,27.87z"/>
	</g>
	<g>
		<path fill="#965353" d="M9.9,15.62L28.88,34.59c-0.71,1.69-1.75,3.28-3.13,4.66L5.25,18.74C6.63,17.36,8.21,16.32,9.9,15.62z"/>
	</g>
	<g>
		<path fill="#965353" d="M2.13,23.4l18.971,18.97c-2.13,0.9-4.44,1.26-6.71,1.08L1.05,30.11C1.01,29.74,1,29.37,1,29
			c0-1.899,0.37-3.81,1.12-5.6H2.13z"/>
	</g>
	<g>
		<path fill="#965353" d="M5.25,18.74l20.5,20.51c-1.38,1.38-2.96,2.42-4.649,3.12L2.13,23.4H2.12C2.82,21.71,3.87,20.12,5.25,18.74
			z"/>
	</g>
	<g>
		<path fill="#965353" d="M29.94,27.87c0.04,0.38,0.05,0.75,0.05,1.13c0,1.9-0.37,3.8-1.11,5.59L9.9,15.62
			c2.14-0.9,4.439-1.26,6.72-1.07L29.94,27.87z"/>
	</g>
</g>
<g>
	<g>
		<path d="M48.499,44.5c-8.547,0-15.5-6.953-15.5-15.5s6.953-15.5,15.5-15.5s15.5,6.953,15.5,15.5S57.046,44.5,48.499,44.5z
			 M48.499,15.5c-7.444,0-13.5,6.056-13.5,13.5s6.056,13.5,13.5,13.5s13.5-6.056,13.5-13.5S55.943,15.5,48.499,15.5z"/>
	</g>
	<g>
		<path d="M15.5,44.499c-4.141,0-8.032-1.611-10.96-4.539c-6.044-6.043-6.044-15.877,0-21.92c2.928-2.928,6.819-4.539,10.96-4.539
			s8.032,1.611,10.96,4.539c6.044,6.043,6.044,15.877,0,21.92C23.532,42.888,19.641,44.499,15.5,44.499z M15.5,15.501
			c-3.606,0-6.996,1.403-9.546,3.953c-5.264,5.264-5.264,13.828,0,19.092c2.55,2.55,5.939,3.953,9.546,3.953
			s6.996-1.403,9.546-3.953c5.264-5.264,5.264-13.828,0-19.092C22.496,16.904,19.106,15.501,15.5,15.501z"/>
	</g>
	<g>
		<path d="M48.499,41.5c-6.893,0-12.5-5.607-12.5-12.5s5.607-12.5,12.5-12.5s12.5,5.607,12.5,12.5S55.392,41.5,48.499,41.5z
			 M48.499,18.5c-5.79,0-10.5,4.71-10.5,10.5s4.71,10.5,10.5,10.5s10.5-4.71,10.5-10.5S54.289,18.5,48.499,18.5z"/>
	</g>
	<g>
		<path d="M48.5,50.5C39.953,50.5,33,43.547,33,35c0-0.553,0.447-1,1-1s1,0.447,1,1c0,7.444,6.056,13.5,13.5,13.5S62,42.444,62,35
			c0-0.553,0.447-1,1-1s1,0.447,1,1C64,43.547,57.047,50.5,48.5,50.5z"/>
	</g>
	<g>
		<path d="M63,36c-0.553,0-1-0.447-1-1v-6c0-0.553,0.447-1,1-1s1,0.447,1,1v6C64,35.553,63.553,36,63,36z"/>
	</g>
	<g>
		<path d="M34,36c-0.553,0-1-0.447-1-1v-6c0-0.553,0.447-1,1-1s1,0.447,1,1v6C35,35.553,34.553,36,34,36z"/>
	</g>
	<g>
		<path d="M15.5,50.5C6.953,50.5,0,43.547,0,35c0-0.553,0.447-1,1-1s1,0.447,1,1c0,7.444,6.056,13.5,13.5,13.5S29,42.444,29,35
			c0-0.553,0.447-1,1-1s1,0.447,1,1C31,43.547,24.047,50.5,15.5,50.5z"/>
	</g>
	<g>
		<path d="M30,36c-0.553,0-1-0.447-1-1v-6c0-0.553,0.447-1,1-1s1,0.447,1,1v6C31,35.553,30.553,36,30,36z"/>
	</g>
	<g>
		<path d="M1,36c-0.553,0-1-0.447-1-1v-6c0-0.553,0.447-1,1-1s1,0.447,1,1v6C2,35.553,1.553,36,1,36z"/>
	</g>
	<g>
		<path d="M57,47.748c-0.553,0-1-0.447-1-1v-6c0-0.553,0.447-1,1-1s1,0.447,1,1v6C58,47.301,57.553,47.748,57,47.748z"/>
	</g>
	<g>
		<path d="M40.001,47.748c-0.553,0-1-0.447-1-1v-6c0-0.553,0.447-1,1-1s1,0.447,1,1v6C41.001,47.301,40.554,47.748,40.001,47.748z"
			/>
	</g>
	<g>
		<path d="M48.5,50.5c-0.553,0-1-0.447-1-1v-6c0-0.553,0.447-1,1-1s1,0.447,1,1v6C49.5,50.053,49.053,50.5,48.5,50.5z"/>
	</g>
	<g>
		<path d="M48.5,34.5c-2.481,0-4.5-2.019-4.5-4.5c0-2.231,1.753-6.5,4.5-6.5S53,27.769,53,30C53,32.481,50.981,34.5,48.5,34.5z
			 M48.5,25.5c-1.079,0-2.5,2.83-2.5,4.5c0,1.379,1.121,2.5,2.5,2.5S51,31.379,51,30C51,28.33,49.579,25.5,48.5,25.5z"/>
	</g>
	<g>
		<path d="M25.753,40.253c-0.256,0-0.512-0.098-0.707-0.293L4.54,19.454c-0.391-0.391-0.391-1.023,0-1.414s1.023-0.391,1.414,0
			L26.46,38.546c0.391,0.391,0.391,1.023,0,1.414C26.265,40.155,26.009,40.253,25.753,40.253z"/>
	</g>
	<g>
		<path d="M28.881,35.596c-0.256,0-0.512-0.098-0.707-0.293L9.197,16.326c-0.391-0.391-0.391-1.023,0-1.414s1.023-0.391,1.414,0
			l18.977,18.977c0.391,0.391,0.391,1.023,0,1.414C29.393,35.498,29.137,35.596,28.881,35.596z"/>
	</g>
	<g>
		<path d="M30.003,28.933c-0.256,0-0.512-0.098-0.707-0.293l-13.39-13.39c-0.391-0.391-0.391-1.023,0-1.414s1.023-0.391,1.414,0
			l13.39,13.39c0.391,0.391,0.391,1.023,0,1.414C30.515,28.835,30.259,28.933,30.003,28.933z"/>
	</g>
	<g>
		<path d="M21.102,43.374c-0.256,0-0.512-0.098-0.707-0.293L1.419,24.105c-0.391-0.391-0.391-1.023,0-1.414s1.023-0.391,1.414,0
			l18.976,18.976c0.391,0.391,0.391,1.023,0,1.414C21.613,43.276,21.357,43.374,21.102,43.374z"/>
	</g>
	<g>
		<path d="M14.393,44.451c-0.256,0-0.512-0.098-0.707-0.293L0.297,30.769c-0.391-0.391-0.391-1.023,0-1.414s1.023-0.391,1.414,0
			L15.1,42.744c0.391,0.391,0.391,1.023,0,1.414C14.904,44.354,14.648,44.451,14.393,44.451z"/>
	</g>
</g>
</svg>
