<?xml version="1.0" encoding="utf-8"?>
<!-- Generator: Adobe Illustrator 16.0.0, SVG Export Plug-In . SVG Version: 6.00 Build 0)  -->
<!DOCTYPE svg PUBLIC "-//W3C//DTD SVG 1.0//EN" "http://www.w3.org/TR/2001/REC-SVG-20010904/DTD/svg10.dtd">
<svg version="1.0" id="Layer_1" xmlns="http://www.w3.org/2000/svg" xmlns:xlink="http://www.w3.org/1999/xlink" x="0px" y="0px"
	 width="100px" height="100px" viewBox="0 0 100 100" enable-background="new 0 0 100 100" xml:space="preserve">
<path fill="#8C4343" stroke="#3E2426" stroke-width="1.5" stroke-linecap="round" stroke-linejoin="round" stroke-miterlimit="10" d="
	M15.364,33.598c-1.86,5.311-2.864,10.786-2.864,16.401v0.004c0,5.612,1.008,11.092,2.864,16.4c0.453,1.301,1.131,2.554,2.009,3.751
	c1.788,2.444,4.401,4.648,7.657,6.49c6.389,3.62,15.219,5.855,24.971,5.855c9.753,0,18.583-2.235,24.969-5.855
	c3.256-1.842,5.87-4.046,7.655-6.49c0.882-1.197,1.561-2.45,2.012-3.751c1.854-5.309,2.863-10.788,2.863-16.4v-0.004
	c0-5.616-1.01-11.09-2.863-16.403c-0.451-1.299-1.13-2.553-2.009-3.75c-1.788-2.444-4.402-4.649-7.658-6.491
	C68.584,19.735,59.754,17.5,50.001,17.5c-9.752,0-18.581,2.235-24.97,5.854c-3.254,1.842-5.868,4.046-7.654,6.491
	c-0.881,1.198-1.558,2.452-2.011,3.75L15.364,33.598z"/>
<path fill="#FCE9BB" stroke="#3E2426" stroke-width="1.5" stroke-linecap="round" stroke-linejoin="round" stroke-miterlimit="10" d="
	M12.674,53.904c-0.106-1.292-0.174-2.593-0.174-3.901v-0.004c0-5.616,1.004-11.09,2.864-16.401l0.002-0.002
	c0.453-1.299,1.13-2.553,2.011-3.75c1.786-2.444,4.399-4.649,7.654-6.491c6.39-3.619,15.218-5.854,24.97-5.854
	c9.753,0,18.583,2.235,24.969,5.854c3.256,1.842,5.87,4.046,7.658,6.491c0.879,1.198,1.558,2.452,2.009,3.75
	C86.49,38.909,87.5,44.383,87.5,49.999v0.004c0,1.309-0.069,2.609-0.176,3.901c-1.027,0.73-2.02,1.486-2.846,2.317
	c-2.742,2.76-3.662,9.228-8.059,11.154c-3.703,1.622-9.362-1.847-13.91-1.002c-4.079,0.758-7.982,6.124-12.509,6.124
	c-4.527,0-8.431-5.366-12.509-6.124c-4.547-0.845-10.207,2.624-13.913,1.002c-4.397-1.927-5.317-8.395-8.059-11.154
	C14.696,55.391,13.704,54.635,12.674,53.904z"/>
<path fill="#DACAA4" d="M84.641,33.596c-0.455-1.299-1.131-2.553-2.013-3.75c-1.788-2.444-4.399-4.649-7.654-6.491
	c-6.39-3.619-15.217-5.854-24.971-5.854c-3.132,0-6.167,0.232-9.058,0.664c8.688,1.12,16.456,3.608,22.542,7.055
	c4.291,2.427,7.732,5.333,10.09,8.557c1.163,1.578,2.053,3.232,2.652,4.944c2.443,7.002,3.77,14.218,3.77,21.624v0.003
	c0,1.304-0.061,2.598-0.146,3.888c1.778-2.69,2.801-6.172,4.628-8.012c0.823-0.831,1.815-1.587,2.846-2.317
	c0.107-1.292,0.173-2.593,0.173-3.901v-0.004C87.5,44.383,86.494,38.909,84.641,33.596z"/>
<circle fill="none" stroke="#3E2426" stroke-width="1.5" stroke-linecap="round" stroke-linejoin="round" stroke-miterlimit="10" cx="79.366" cy="37.5" r="1.875"/>
<ellipse fill="#8C4343" stroke="#3E2426" stroke-width="1.5" stroke-linecap="round" stroke-linejoin="round" stroke-miterlimit="10" cx="50.003" cy="37.5" rx="15.136" ry="7.5"/>
<path fill="none" stroke="#3E2426" stroke-width="1.5" stroke-linecap="round" stroke-linejoin="round" stroke-miterlimit="10" d="
	M25.026,51.643c13.793,7.81,36.154,7.81,49.948,0C61.18,59.452,38.819,59.452,25.026,51.643z"/>
<circle fill="#F49AB0" stroke="#3E2426" stroke-width="1.5" stroke-linecap="round" stroke-linejoin="round" stroke-miterlimit="10" cx="70.032" cy="41.876" r="1.875"/>
<circle fill="#F49AB0" stroke="#3E2426" stroke-width="1.5" stroke-linecap="round" stroke-linejoin="round" stroke-miterlimit="10" cx="76.848" cy="46.875" r="1.874"/>
<circle fill="#F49AB0" stroke="#3E2426" stroke-width="1.5" stroke-linecap="round" stroke-linejoin="round" stroke-miterlimit="10" cx="74.974" cy="29.999" r="1.874"/>
<circle fill="#F49AB0" stroke="#3E2426" stroke-width="1.5" stroke-linecap="round" stroke-linejoin="round" stroke-miterlimit="10" cx="65.14" cy="28.123" r="1.875"/>
<path fill="#F49AB0" stroke="#3E2426" stroke-width="1.5" stroke-linecap="round" stroke-linejoin="round" stroke-miterlimit="10" d="
	M59.003,22.829c0,1.035-0.841,1.874-1.878,1.874c-1.033,0-1.874-0.839-1.874-1.874c0-1.037,0.841-1.877,1.874-1.877
	C58.162,20.952,59.003,21.792,59.003,22.829z"/>
<path fill="#F49AB0" stroke="#3E2426" stroke-width="1.5" stroke-linecap="round" stroke-linejoin="round" stroke-miterlimit="10" d="
	M50.001,24.705c0,1.036-0.841,1.875-1.878,1.875c-1.033,0-1.874-0.839-1.874-1.875c0-1.037,0.841-1.878,1.874-1.878
	C49.16,22.827,50.001,23.668,50.001,24.705z"/>
<circle fill="#F49AB0" stroke="#3E2426" stroke-width="1.5" stroke-linecap="round" stroke-linejoin="round" stroke-miterlimit="10" cx="38.742" cy="24.371" r="1.874"/>
<path fill="#F49AB0" stroke="#3E2426" stroke-width="1.5" stroke-linecap="round" stroke-linejoin="round" stroke-miterlimit="10" d="
	M33.637,29.999c0,1.036-0.841,1.876-1.878,1.876c-1.033,0-1.874-0.841-1.874-1.876c0-1.035,0.841-1.876,1.874-1.876
	C32.796,28.123,33.637,28.963,33.637,29.999z"/>
<circle fill="#F49AB0" stroke="#3E2426" stroke-width="1.5" stroke-linecap="round" stroke-linejoin="round" stroke-miterlimit="10" cx="23.151" cy="31.875" r="1.875"/>
<circle fill="#F49AB0" stroke="#3E2426" stroke-width="1.5" stroke-linecap="round" stroke-linejoin="round" stroke-miterlimit="10" cx="29.167" cy="40" r="1.875"/>
<path fill="#F49AB0" stroke="#3E2426" stroke-width="1.5" stroke-linecap="round" stroke-linejoin="round" stroke-miterlimit="10" d="
	M32.69,48.581c0,1.036-0.841,1.876-1.878,1.876c-1.033,0-1.874-0.84-1.874-1.876c0-1.035,0.841-1.875,1.874-1.875
	C31.849,46.706,32.69,47.546,32.69,48.581z"/>
<circle fill="#F49AB0" stroke="#3E2426" stroke-width="1.5" stroke-linecap="round" stroke-linejoin="round" stroke-miterlimit="10" cx="39.468" cy="48.752" r="1.875"/>
<circle fill="#F49AB0" stroke="#3E2426" stroke-width="1.5" stroke-linecap="round" stroke-linejoin="round" stroke-miterlimit="10" cx="66.28" cy="49.381" r="1.876"/>
<path fill="#F49AB0" stroke="#3E2426" stroke-width="1.5" stroke-linecap="round" stroke-linejoin="round" stroke-miterlimit="10" d="
	M50.001,52.504c0,1.033-0.841,1.874-1.878,1.874c-1.033,0-1.874-0.841-1.874-1.874c0-1.035,0.841-1.876,1.874-1.876
	C49.16,50.628,50.001,51.469,50.001,52.504z"/>
<path fill="#F49AB0" stroke="#3E2426" stroke-width="1.5" stroke-linecap="round" stroke-linejoin="round" stroke-miterlimit="10" d="
	M58.769,48.995c0,1.035-0.841,1.876-1.878,1.876c-1.033,0-1.874-0.841-1.874-1.876s0.841-1.876,1.874-1.876
	C57.928,47.119,58.769,47.96,58.769,48.995z"/>
<circle fill="#F49AB0" stroke="#3E2426" stroke-width="1.5" stroke-linecap="round" stroke-linejoin="round" stroke-miterlimit="10" cx="20.243" cy="41.876" r="1.874"/>
<path fill="#773736" d="M87.325,53.904c-1.03,0.73-2.022,1.486-2.846,2.317c-2.742,2.76-3.662,9.228-8.062,11.154
	c-3.704,1.622-9.363-1.847-13.911-1.002c-4.078,0.758-7.981,6.124-12.509,6.124c-4.526,0-8.427-5.366-12.507-6.124
	c-4.547-0.845-10.209,2.624-13.912,1.002c-4.394-1.927-5.314-8.395-8.056-11.154c-0.827-0.831-1.819-1.587-2.848-2.317
	c-0.108-1.292-0.174-2.593-0.174-3.901c0,2.485,0.208,4.943,0.591,7.375c0.229,0.198,0.451,0.399,0.656,0.606
	c0.773,0.778,1.471,2.22,2.21,3.75c1.376,2.844,3.089,6.386,6.616,7.931c0.996,0.438,2.095,0.649,3.36,0.649
	c1.76,0,3.58-0.421,5.34-0.825c1.601-0.369,3.256-0.751,4.66-0.751c0.399,0,0.77,0.031,1.101,0.094
	c1.294,0.24,2.839,1.332,4.475,2.49c2.438,1.722,5.2,3.676,8.488,3.676s6.053-1.954,8.491-3.678c1.637-1.156,3.182-2.25,4.475-2.488
	c0.335-0.063,0.695-0.094,1.1-0.094c1.405,0,3.06,0.382,4.659,0.751c1.759,0.404,3.579,0.825,5.34,0.825
	c1.264,0,2.363-0.212,3.357-0.648c3.533-1.546,5.247-5.09,6.623-7.936c0.739-1.526,1.437-2.97,2.211-3.748
	c0.205-0.207,0.426-0.406,0.653-0.604c0.382-2.432,0.59-4.89,0.59-7.375C87.497,51.312,87.432,52.612,87.325,53.904z"/>
<path fill="#773736" d="M50.001,29.999c-1.297,0-2.55,0.09-3.75,0.241c6.541,0.83,11.388,3.761,11.388,7.26
	c0,3.5-4.847,6.431-11.388,7.259c1.2,0.152,2.453,0.241,3.75,0.241c8.357,0,15.138-3.356,15.138-7.5
	C65.139,33.358,58.358,29.999,50.001,29.999z"/>
<path fill="#FFFFFF" stroke="#3E2426" stroke-width="1.5" stroke-linecap="round" stroke-linejoin="round" stroke-miterlimit="10" d="
	M38.743,42.499C41.512,44.032,45.523,45,50.001,45c4.479,0,8.488-0.968,11.262-2.501C58.489,40.969,54.479,40,50.001,40
	C45.523,40,41.512,40.969,38.743,42.499z"/>
<path fill="none" stroke="#3E2426" stroke-width="1.5" stroke-linecap="round" stroke-linejoin="round" stroke-miterlimit="10" d="
	M15.364,33.598c-1.86,5.311-2.864,10.786-2.864,16.401v0.004c0,5.612,1.008,11.092,2.864,16.4c0.453,1.301,1.131,2.554,2.009,3.751
	c1.788,2.444,4.401,4.648,7.657,6.49c6.389,3.62,15.219,5.855,24.971,5.855c9.753,0,18.583-2.235,24.969-5.855
	c3.256-1.842,5.87-4.046,7.655-6.49c0.882-1.197,1.561-2.45,2.012-3.751c1.854-5.309,2.863-10.788,2.863-16.4v-0.004
	c0-5.616-1.01-11.09-2.863-16.403c-0.451-1.299-1.13-2.553-2.009-3.75c-1.788-2.444-4.402-4.649-7.658-6.491
	C68.584,19.735,59.754,17.5,50.001,17.5c-9.752,0-18.581,2.235-24.97,5.854c-3.254,1.842-5.868,4.046-7.654,6.491
	c-0.881,1.198-1.558,2.452-2.011,3.75L15.364,33.598z"/>
<path fill="none" stroke="#3E2426" stroke-width="1.5" stroke-linecap="round" stroke-linejoin="round" stroke-miterlimit="10" d="
	M12.674,53.904c-0.106-1.292-0.174-2.593-0.174-3.901v-0.004c0-5.616,1.004-11.09,2.864-16.401l0.002-0.002
	c0.453-1.299,1.13-2.553,2.011-3.75c1.786-2.444,4.399-4.649,7.654-6.491c6.39-3.619,15.218-5.854,24.97-5.854
	c9.753,0,18.583,2.235,24.969,5.854c3.256,1.842,5.87,4.046,7.658,6.491c0.879,1.198,1.558,2.452,2.009,3.75
	C86.49,38.909,87.5,44.383,87.5,49.999v0.004c0,1.309-0.069,2.609-0.176,3.901c-1.027,0.73-2.02,1.486-2.846,2.317
	c-2.742,2.76-3.662,9.228-8.059,11.154c-3.703,1.622-9.362-1.847-13.91-1.002c-4.079,0.758-7.982,6.124-12.509,6.124
	c-4.527,0-8.431-5.366-12.509-6.124c-4.547-0.845-10.207,2.624-13.913,1.002c-4.397-1.927-5.317-8.395-8.059-11.154
	C14.696,55.391,13.704,54.635,12.674,53.904z"/>
<ellipse fill="none" stroke="#3E2426" stroke-width="1.5" stroke-linecap="round" stroke-linejoin="round" stroke-miterlimit="10" cx="50.003" cy="37.5" rx="15.136" ry="7.5"/>
</svg>
