<svg width="96" height="97" viewBox="0 0 96 97" fill="none" xmlns="http://www.w3.org/2000/svg">
<path d="M48 54.801C48 53.1442 49.3431 51.801 51 51.801C52.6569 51.801 54 53.1442 54 54.801V84.801C54 86.4579 52.6569 87.801 51 87.801C49.3431 87.801 48 86.4579 48 84.801V54.801Z" fill="#DFBC78"/>
<path fill-rule="evenodd" clip-rule="evenodd" d="M56 54.801V84.801C56 87.5625 53.7614 89.801 51 89.801C48.2386 89.801 46 87.5625 46 84.801V54.801C46 52.0396 48.2386 49.801 51 49.801C53.7614 49.801 56 52.0396 56 54.801ZM51 51.801C49.3431 51.801 48 53.1442 48 54.801V84.801C48 86.4579 49.3431 87.801 51 87.801C52.6569 87.801 54 86.4579 54 84.801V54.801C54 53.1442 52.6569 51.801 51 51.801Z" fill="#CFA045"/>
<path d="M66.8762 30.801C66.9579 30.1458 67 29.4783 67 28.801C67 19.9645 59.8366 12.801 51 12.801C42.1634 12.801 35 19.9645 35 28.801C35 29.4783 35.0421 30.1458 35.1238 30.801H35V58.801C35 62.1147 37.6863 64.801 41 64.801H61C64.3137 64.801 67 62.1147 67 58.801V30.801H66.8762Z" fill="#FC3287"/>
<path fill-rule="evenodd" clip-rule="evenodd" d="M35.1238 30.801C35.0421 30.1458 35 29.4783 35 28.801C35 19.9645 42.1634 12.801 51 12.801C59.8366 12.801 67 19.9645 67 28.801C67 29.4783 66.9579 30.1458 66.8762 30.801H67V58.801C67 62.1147 64.3137 64.801 61 64.801H41C37.6863 64.801 35 62.1147 35 58.801V30.801H35.1238ZM33 28.801V58.801C33 63.2193 36.5817 66.801 41 66.801H61C65.4183 66.801 69 63.2193 69 58.801V28.801C69 18.8599 60.9411 10.801 51 10.801C41.0589 10.801 33 18.8599 33 28.801Z" fill="#B50950"/>
<path fill-rule="evenodd" clip-rule="evenodd" d="M57 20.801C58.1046 20.801 59 21.6965 59 22.801V58.801C59 59.9056 58.1046 60.801 57 60.801C55.8954 60.801 55 59.9056 55 58.801V22.801C55 21.6965 55.8954 20.801 57 20.801Z" fill="#D6236E"/>
<path fill-rule="evenodd" clip-rule="evenodd" d="M45 20.801C46.1046 20.801 47 21.6965 47 22.801V58.801C47 59.9056 46.1046 60.801 45 60.801C43.8954 60.801 43 59.9056 43 58.801V22.801C43 21.6965 43.8954 20.801 45 20.801Z" fill="#D6236E"/>
<path fill-rule="evenodd" clip-rule="evenodd" d="M37.75 22.926C38.3023 22.926 38.75 23.3737 38.75 23.926V59.926C38.75 60.4783 38.3023 60.926 37.75 60.926C37.1977 60.926 36.75 60.4783 36.75 59.926V23.926C36.75 23.3737 37.1977 22.926 37.75 22.926Z" fill="#FF77B0"/>
<path fill-rule="evenodd" clip-rule="evenodd" d="M52.875 23.551C53.4273 23.551 53.875 23.9987 53.875 24.551V60.551C53.875 61.1033 53.4273 61.551 52.875 61.551C52.3227 61.551 51.875 61.1033 51.875 60.551V24.551C51.875 23.9987 52.3227 23.551 52.875 23.551Z" fill="#FF77B0"/>
<path d="M66.8762 30.801C66.9579 30.1458 67 29.4783 67 28.801C67 19.9645 59.8366 12.801 51 12.801C42.1634 12.801 35 19.9645 35 28.801C35 29.4783 35.0421 30.1458 35.1238 30.801C39.7476 36.801 41 28.801 45.5 27.801C50 26.801 54 30.301 55.5 33.301C56.7 35.701 60.3333 36.301 62 36.301C66 36.301 66.9175 32.6344 66.8762 30.801Z" fill="#552308"/>
<path d="M43.6875 21.3011C41.4669 24.9602 40.5815 31.1932 37.875 30.3636C34.8151 29.4258 36.0893 24.5852 38.31 20.9261C40.5306 17.267 45.4952 14.5556 48.0625 16.1137C48.9375 17.5511 45.9081 17.6421 43.6875 21.3011Z" fill="#6C3010"/>
<path fill-rule="evenodd" clip-rule="evenodd" d="M44.7395 17.5881C45.0171 18.0656 44.8551 18.6777 44.3776 18.9552C43.246 19.6131 40.6997 21.7568 39.8377 24.8217C39.6881 25.3533 39.1359 25.6631 38.6043 25.5136C38.0726 25.364 37.7628 24.8118 37.9124 24.2802C38.9619 20.5486 41.9671 18.0433 43.3724 17.2262C43.8498 16.9486 44.4619 17.1107 44.7395 17.5881Z" fill="#AB5B30"/>
</svg>
