<?xml version="1.0" encoding="utf-8"?>
<!-- Generator: Adobe Illustrator 16.0.0, SVG Export Plug-In . SVG Version: 6.00 Build 0)  -->
<!DOCTYPE svg PUBLIC "-//W3C//DTD SVG 1.0//EN" "http://www.w3.org/TR/2001/REC-SVG-20010904/DTD/svg10.dtd">
<svg version="1.0" id="Layer_1" xmlns="http://www.w3.org/2000/svg" xmlns:xlink="http://www.w3.org/1999/xlink" x="0px" y="0px"
	 width="100px" height="100px" viewBox="0 0 100 100" enable-background="new 0 0 100 100" xml:space="preserve">
<rect x="31.176" y="24.116" fill="#C68046" stroke="#3E2426" stroke-width="1.5" stroke-linecap="round" stroke-linejoin="round" stroke-miterlimit="10" width="9.414" height="14.118"/>
<polygon fill="#C68046" stroke="#3E2426" stroke-width="1.5" stroke-linecap="round" stroke-linejoin="round" stroke-miterlimit="10" points="
	40.59,48.822 40.59,38.233 31.176,38.233 31.176,52.352 "/>
<rect x="40.59" y="24.116" fill="#C68046" stroke="#3E2426" stroke-width="1.5" stroke-linecap="round" stroke-linejoin="round" stroke-miterlimit="10" width="9.411" height="14.118"/>
<rect x="50.001" y="24.116" fill="#C68046" stroke="#3E2426" stroke-width="1.5" stroke-linecap="round" stroke-linejoin="round" stroke-miterlimit="10" width="9.411" height="14.118"/>
<rect x="59.412" y="24.116" fill="#C68046" stroke="#3E2426" stroke-width="1.5" stroke-linecap="round" stroke-linejoin="round" stroke-miterlimit="10" width="9.413" height="14.118"/>
<polygon fill="#C68046" stroke="#3E2426" stroke-width="1.5" stroke-linecap="round" stroke-linejoin="round" stroke-miterlimit="10" points="
	50.001,45.292 50.001,38.233 40.59,38.233 40.59,48.822 "/>
<polygon fill="#C68046" stroke="#3E2426" stroke-width="1.5" stroke-linecap="round" stroke-linejoin="round" stroke-miterlimit="10" points="
	59.412,41.765 59.412,38.233 50.001,38.233 50.001,45.292 "/>
<polygon fill="#C68046" stroke="#3E2426" stroke-width="1.5" stroke-linecap="round" stroke-linejoin="round" stroke-miterlimit="10" points="
	68.825,38.233 68.825,38.233 59.412,38.233 59.412,41.765 "/>
<rect x="40.59" y="10" fill="#C68046" stroke="#3E2426" stroke-width="1.5" stroke-linecap="round" stroke-linejoin="round" stroke-miterlimit="10" width="9.411" height="14.116"/>
<rect x="50.001" y="10" fill="#C68046" stroke="#3E2426" stroke-width="1.5" stroke-linecap="round" stroke-linejoin="round" stroke-miterlimit="10" width="9.411" height="14.116"/>
<rect x="59.412" y="10" fill="#C68046" stroke="#3E2426" stroke-width="1.5" stroke-linecap="round" stroke-linejoin="round" stroke-miterlimit="10" width="9.413" height="14.116"/>
<rect x="31.176" y="10" fill="#C68046" stroke="#3E2426" stroke-width="1.5" stroke-linecap="round" stroke-linejoin="round" stroke-miterlimit="10" width="9.414" height="14.116"/>
<rect x="38.825" y="10" fill="#AC713C" width="1.765" height="14.116"/>
<rect x="48.236" y="10" fill="#AC713C" width="1.765" height="14.116"/>
<rect x="57.647" y="10" fill="#AC713C" width="1.765" height="14.116"/>
<rect x="67.061" y="10" fill="#AC713C" width="1.765" height="14.116"/>
<rect x="38.825" y="24.118" fill="#AC713C" width="1.765" height="14.116"/>
<rect x="48.236" y="24.118" fill="#AC713C" width="1.765" height="14.116"/>
<rect x="57.647" y="24.118" fill="#AC713C" width="1.765" height="14.116"/>
<rect x="67.061" y="24.118" fill="#AC713C" width="1.765" height="14.116"/>
<polygon fill="none" stroke="#3E2426" stroke-width="1.5" stroke-linecap="round" stroke-linejoin="round" stroke-miterlimit="10" points="
	37.649,12.939 34.118,12.939 34.118,21.176 34.118,12.939 "/>
<polygon fill="none" stroke="#3E2426" stroke-width="1.5" stroke-linecap="round" stroke-linejoin="round" stroke-miterlimit="10" points="
	47.06,12.939 43.53,12.939 43.53,21.176 43.53,12.939 "/>
<polygon fill="none" stroke="#3E2426" stroke-width="1.5" stroke-linecap="round" stroke-linejoin="round" stroke-miterlimit="10" points="
	56.472,12.939 52.943,12.939 52.943,21.176 52.943,12.939 "/>
<polygon fill="none" stroke="#3E2426" stroke-width="1.5" stroke-linecap="round" stroke-linejoin="round" stroke-miterlimit="10" points="
	65.884,12.939 62.353,12.939 62.353,21.176 62.353,12.939 "/>
<polygon fill="none" stroke="#3E2426" stroke-width="1.5" stroke-linecap="round" stroke-linejoin="round" stroke-miterlimit="10" points="
	37.649,27.057 34.118,27.057 34.118,35.294 34.118,27.057 "/>
<polygon fill="none" stroke="#3E2426" stroke-width="1.5" stroke-linecap="round" stroke-linejoin="round" stroke-miterlimit="10" points="
	47.06,27.057 43.53,27.057 43.53,35.294 43.53,27.057 "/>
<polygon fill="none" stroke="#3E2426" stroke-width="1.5" stroke-linecap="round" stroke-linejoin="round" stroke-miterlimit="10" points="
	56.472,27.057 52.943,27.057 52.943,35.294 52.943,27.057 "/>
<polygon fill="none" stroke="#3E2426" stroke-width="1.5" stroke-linecap="round" stroke-linejoin="round" stroke-miterlimit="10" points="
	65.884,27.057 62.353,27.057 62.353,35.294 62.353,27.057 "/>
<polygon fill="none" stroke="#3E2426" stroke-width="1.5" stroke-linecap="round" stroke-linejoin="round" stroke-miterlimit="10" points="
	37.649,41.175 34.118,41.175 34.118,47.646 34.118,41.175 "/>
<polygon fill="#EF4943" stroke="#3E2426" stroke-width="1.5" stroke-linecap="round" stroke-linejoin="round" stroke-miterlimit="10" points="
	71.176,82.941 28.823,82.941 26.471,90 28.823,87.646 31.176,90 33.529,87.646 35.881,90 38.235,87.646 40.586,90 42.94,87.646 
	45.293,90 47.645,87.646 49.999,90 52.353,87.646 54.704,90 57.058,87.646 59.412,90 61.767,87.646 64.117,90 66.471,87.646 
	68.825,90 71.18,87.646 73.529,90 "/>
<polygon fill="#CF3E3A" points="71.176,82.941 66.471,82.941 68.823,89.998 68.825,90 71.18,87.646 73.529,90 "/>
<polygon fill="none" stroke="#3E2426" stroke-width="1.5" stroke-linecap="round" stroke-linejoin="round" stroke-miterlimit="10" points="
	47.06,41.175 43.53,41.175 43.53,47.72 43.53,41.175 "/>
<polygon fill="#EF4943" stroke="#3E2426" stroke-width="1.5" stroke-linecap="round" stroke-linejoin="round" stroke-miterlimit="10" points="
	71.176,82.941 28.823,82.941 28.823,53.233 71.176,37.352 "/>
<polygon fill="#AC713C" points="40.59,48.821 40.59,38.233 38.825,38.233 38.825,49.481 "/>
<polygon fill="#AC713C" points="50.001,45.292 50.001,38.233 48.236,38.233 48.236,45.953 "/>
<polygon fill="#AC713C" points="59.412,41.762 59.412,38.233 57.647,38.233 57.647,42.425 "/>
<polygon fill="#CF3E3A" points="66.47,39.116 66.47,82.941 71.176,82.941 71.176,37.352 "/>
<path fill="#B1E1F3" stroke="#3E2426" stroke-width="1.5" stroke-linecap="round" stroke-linejoin="round" stroke-miterlimit="10" d="
	M47.895,68.823c0,3.897-3.158,7.06-7.056,7.06c-3.901,0-7.062-3.162-7.062-7.06c0-3.9,3.161-7.063,7.062-7.063
	C44.737,61.761,47.895,64.923,47.895,68.823z"/>
<path fill="#9AC5D5" d="M40.839,61.761c-0.827,0-1.616,0.149-2.354,0.41c2.738,0.971,4.703,3.578,4.703,6.652
	c0,3.07-1.965,5.678-4.703,6.648c0.738,0.26,1.527,0.411,2.354,0.411c3.898,0,7.056-3.162,7.056-7.06
	C47.895,64.923,44.737,61.761,40.839,61.761z"/>
<path fill="#FAEC91" stroke="#3E2426" stroke-width="1.5" stroke-linecap="round" stroke-linejoin="round" stroke-miterlimit="10" d="
	M40.713,48.775l-4.582,1.719c0.402,4.306,1.299,8.256,2.555,11.637c0.684-0.221,1.397-0.37,2.153-0.37
	c1.093,0,2.123,0.256,3.046,0.699C42.319,59.051,41.082,54.402,40.713,48.775z"/>
<path fill="#D8CE80" d="M41.244,61.784c0.941,0.055,1.834,0.288,2.642,0.676c-1.566-3.409-2.803-8.058-3.172-13.685l-2.28,0.854
	C38.839,54.52,39.897,58.629,41.244,61.784z"/>
<path fill="#FAEC91" stroke="#3E2426" stroke-width="1.5" stroke-linecap="round" stroke-linejoin="round" stroke-miterlimit="10" d="
	M63.867,40.093l-4.581,1.719c0.074,1.127,0.126,2.279,0.126,3.482c0,14.362-5.574,23.529-9.413,23.529
	c-0.677,0-1.413-0.303-2.161-0.855c0.034,0.281,0.057,0.565,0.057,0.855c0,1.446-0.438,2.788-1.184,3.907
	c1.057,0.506,2.154,0.797,3.288,0.797c7.799,0,14.118-12.641,14.118-28.233C64.117,43.516,64.025,41.781,63.867,40.093z"/>
<path fill="#D8CE80" d="M63.867,40.093l-2.293,0.859c0.113,1.419,0.188,2.861,0.188,4.342c0,14.777-5.677,26.896-12.908,28.123
	c0.377,0.065,0.758,0.11,1.144,0.11c7.799,0,14.118-12.641,14.118-28.233C64.117,43.516,64.025,41.781,63.867,40.093z"/>
<rect x="31.176" y="24.116" fill="none" stroke="#3E2426" stroke-width="1.5" stroke-linecap="round" stroke-linejoin="round" stroke-miterlimit="10" width="9.414" height="14.118"/>
<polygon fill="none" stroke="#3E2426" stroke-width="1.5" stroke-linecap="round" stroke-linejoin="round" stroke-miterlimit="10" points="
	40.59,48.822 40.59,38.233 31.176,38.233 31.176,52.352 "/>
<rect x="40.59" y="24.116" fill="none" stroke="#3E2426" stroke-width="1.5" stroke-linecap="round" stroke-linejoin="round" stroke-miterlimit="10" width="9.411" height="14.118"/>
<rect x="50.001" y="24.116" fill="none" stroke="#3E2426" stroke-width="1.5" stroke-linecap="round" stroke-linejoin="round" stroke-miterlimit="10" width="9.411" height="14.118"/>
<rect x="59.412" y="24.116" fill="none" stroke="#3E2426" stroke-width="1.5" stroke-linecap="round" stroke-linejoin="round" stroke-miterlimit="10" width="9.413" height="14.118"/>
<polygon fill="none" stroke="#3E2426" stroke-width="1.5" stroke-linecap="round" stroke-linejoin="round" stroke-miterlimit="10" points="
	50.001,45.292 50.001,38.233 40.59,38.233 40.59,48.822 "/>
<polygon fill="none" stroke="#3E2426" stroke-width="1.5" stroke-linecap="round" stroke-linejoin="round" stroke-miterlimit="10" points="
	59.412,41.765 59.412,38.233 50.001,38.233 50.001,45.292 "/>
<rect x="40.59" y="10" fill="none" stroke="#3E2426" stroke-width="1.5" stroke-linecap="round" stroke-linejoin="round" stroke-miterlimit="10" width="9.411" height="14.116"/>
<rect x="50.001" y="10" fill="none" stroke="#3E2426" stroke-width="1.5" stroke-linecap="round" stroke-linejoin="round" stroke-miterlimit="10" width="9.411" height="14.116"/>
<rect x="59.412" y="10" fill="none" stroke="#3E2426" stroke-width="1.5" stroke-linecap="round" stroke-linejoin="round" stroke-miterlimit="10" width="9.413" height="14.116"/>
<rect x="31.176" y="10" fill="none" stroke="#3E2426" stroke-width="1.5" stroke-linecap="round" stroke-linejoin="round" stroke-miterlimit="10" width="9.414" height="14.116"/>
<polygon fill="none" stroke="#3E2426" stroke-width="1.5" stroke-linecap="round" stroke-linejoin="round" stroke-miterlimit="10" points="
	71.176,82.941 28.823,82.941 26.471,90 28.823,87.646 31.176,90 33.529,87.646 35.881,90 38.235,87.646 40.586,90 42.94,87.646 
	45.293,90 47.645,87.646 49.999,90 52.353,87.646 54.704,90 57.058,87.646 59.412,90 61.767,87.646 64.117,90 66.471,87.646 
	68.825,90 71.18,87.646 73.529,90 "/>
<polygon fill="none" stroke="#3E2426" stroke-width="1.5" stroke-linecap="round" stroke-linejoin="round" stroke-miterlimit="10" points="
	71.176,82.941 28.823,82.941 28.823,53.233 71.176,37.352 "/>
<path fill="none" stroke="#3E2426" stroke-width="1.5" stroke-linecap="round" stroke-linejoin="round" stroke-miterlimit="10" d="
	M47.895,68.823c0,3.897-3.158,7.06-7.056,7.06c-3.901,0-7.062-3.162-7.062-7.06c0-3.9,3.161-7.063,7.062-7.063
	C44.737,61.761,47.895,64.923,47.895,68.823z"/>
<path fill="none" stroke="#3E2426" stroke-width="1.5" stroke-linecap="round" stroke-linejoin="round" stroke-miterlimit="10" d="
	M40.713,48.775l-4.582,1.719c0.402,4.306,1.299,8.256,2.555,11.637c0.684-0.221,1.397-0.37,2.153-0.37
	c1.093,0,2.123,0.256,3.046,0.699C42.319,59.051,41.082,54.402,40.713,48.775z"/>
<path fill="none" stroke="#3E2426" stroke-width="1.5" stroke-linecap="round" stroke-linejoin="round" stroke-miterlimit="10" d="
	M63.867,40.093l-4.581,1.719c0.074,1.127,0.126,2.279,0.126,3.482c0,14.362-5.574,23.529-9.413,23.529
	c-0.677,0-1.413-0.303-2.161-0.855c0.034,0.281,0.057,0.565,0.057,0.855c0,1.446-0.438,2.788-1.184,3.907
	c1.057,0.506,2.154,0.797,3.288,0.797c7.799,0,14.118-12.641,14.118-28.233C64.117,43.516,64.025,41.781,63.867,40.093z"/>
</svg>
