<svg xmlns="http://www.w3.org/2000/svg" viewBox="0 0 64 64"><defs><style>.cls-1{isolation:isolate;}.cls-2{fill:#aa3f35;}.cls-3{fill:#40a629;}.cls-4{fill:red;}.cls-5{fill:#db9d53;}.cls-6{fill:none;stroke:#000;stroke-linecap:round;stroke-linejoin:round;stroke-width:2px;}.cls-7{opacity:0.25;mix-blend-mode:multiply;}.cls-8,.cls-9{mix-blend-mode:overlay;}.cls-9{fill:#fff;}</style></defs><title>Icon Color</title><g class="cls-1"><g id="Layer_1" data-name="Layer 1"><g id="Vector"><path class="cls-2" d="M13.21,27.16c-.26.2-.53.4-.79.63a29.59,29.59,0,0,0-2.36,2.11,30.58,30.58,0,0,0-5.22,7c-.48.87-.91,1.77-1.31,2.68,0-1.64.17-2.55.09-3.61a6.4,6.4,0,0,1-2-4.63v0a6.52,6.52,0,0,1,10.1-5.45A6.43,6.43,0,0,1,13.21,27.16Z"/><path class="cls-3" d="M38.83,21.67a1.42,1.42,0,0,1,.21-.22,1.68,1.68,0,0,1,.15.3A2.33,2.33,0,0,0,38.83,21.67Z"/><path class="cls-3" d="M57.19,24.08A9,9,0,0,1,59,27.92a7.28,7.28,0,0,0-5.41-2.41,7.44,7.44,0,0,0-2.06.3,7.31,7.31,0,0,0-7.26-6.53A7.23,7.23,0,0,0,39,21.45a8.79,8.79,0,0,0-7.83-4.76A8.86,8.86,0,0,0,23,22.22a29.78,29.78,0,0,0-9.82,4.94,6.43,6.43,0,0,0-1.47-1.32,6.52,6.52,0,0,0-10.1,5.45v0h0c-.11-2.24.07-5.15,1.9-6.44,1.52-1.09,2.85-.08,4.4-1.21,2.37-1.72.69-5.09,3-7.15,1.35-1.22,2.14-.22,6.8-1.34,3.84-.94,4.27-1.85,6.46-1.65,2.67.25,2.82,1.68,5,1.68,3.26,0,4.2-3,6.58-2.64s1.94,3.27,4.64,4.57a.26.26,0,0,0,.09.05,4.41,4.41,0,0,0,1.36.38c3,.43,5.74-1.76,7.61-.05.83.76.29,1.19,1.26,2.53C52.6,22.64,55.09,21.61,57.19,24.08Z"/><path class="cls-3" d="M61.83,38.71a8.29,8.29,0,0,1-1,1.71,28.78,28.78,0,0,0-1.45-3.19,7.33,7.33,0,0,0,1.37-3.15,4.35,4.35,0,0,1,1.44,2.24A3.88,3.88,0,0,1,61.83,38.71Z"/><path class="cls-2" d="M26.77,17.9A8.69,8.69,0,0,0,23,22.22a29.78,29.78,0,0,0-9.82,4.94,6.43,6.43,0,0,0-1.47-1.32A8.29,8.29,0,0,1,11.53,24,8.83,8.83,0,0,1,26.77,17.9Z"/><path class="cls-4" d="M39,21.45a1.42,1.42,0,0,0-.21.22,29.72,29.72,0,0,0-6.45-.7h-.76a25.54,25.54,0,0,0-2.91.15A27.45,27.45,0,0,0,23,22.22a8.86,8.86,0,0,1,8.18-5.53A8.79,8.79,0,0,1,39,21.45Z"/><path class="cls-4" d="M39.19,21.75a2.33,2.33,0,0,0-.36-.08,1.42,1.42,0,0,1,.21-.22A1.68,1.68,0,0,1,39.19,21.75Z"/><path class="cls-4" d="M51.52,26.58a5.67,5.67,0,0,1-.1,1.09c-.5-.41-1-.81-1.54-1.17a30.1,30.1,0,0,0-10.69-4.75,1.68,1.68,0,0,0-.15-.3,7.23,7.23,0,0,1,5.18-2.17,7.31,7.31,0,0,1,7.26,6.53C51.5,26.07,51.52,26.33,51.52,26.58Z"/><path class="cls-2" d="M39.19,21.75a2.33,2.33,0,0,0-.36-.08,1.42,1.42,0,0,1,.21-.22A1.68,1.68,0,0,1,39.19,21.75Z"/><path class="cls-4" d="M60.84,32.81a6.59,6.59,0,0,1-.12,1.27,7.33,7.33,0,0,1-1.37,3.15,30.32,30.32,0,0,0-7.93-9.56,5.67,5.67,0,0,0,.1-1.09c0-.25,0-.51,0-.77a7.44,7.44,0,0,1,2.06-.3A7.28,7.28,0,0,1,59,27.92h0A7.21,7.21,0,0,1,60.84,32.81Z"/><path class="cls-5" d="M62.86,51.46H1.14A30.47,30.47,0,0,1,3.53,39.57c.4-.91.83-1.81,1.31-2.68a30.58,30.58,0,0,1,5.22-7,29.59,29.59,0,0,1,2.36-2.11c.26-.23.53-.43.79-.63A29.78,29.78,0,0,1,23,22.22a27.45,27.45,0,0,1,5.68-1.1A25.54,25.54,0,0,1,31.62,21h.76a29.72,29.72,0,0,1,6.45.7,2.33,2.33,0,0,1,.36.08A30.1,30.1,0,0,1,49.88,26.5c.53.36,1,.76,1.54,1.17a30.32,30.32,0,0,1,7.93,9.56,28.78,28.78,0,0,1,1.45,3.19,29.72,29.72,0,0,1,1.67,6.12A30.63,30.63,0,0,1,62.86,51.46Z"/><path class="cls-5" d="M17.22,30.63s-7,4-9,14.64"/><path class="cls-5" d="M47,30.63s7,4,9,14.64"/></g><g id="Line"><path d="M8.17,26.77a4.44,4.44,0,0,1,1.87.41c-.48.42-.94.86-1.39,1.31a32.67,32.67,0,0,0-4.28,5.27,4.45,4.45,0,0,1-.73-2.47,4.53,4.53,0,0,1,4.53-4.52m0-2a6.52,6.52,0,0,0-6.53,6.52v0a6.4,6.4,0,0,0,2,4.63c.08,1.06-.12,2-.09,3.61.4-.91.83-1.81,1.31-2.68a30.36,30.36,0,0,1,5.22-7,29.59,29.59,0,0,1,2.36-2.11c.26-.23.53-.43.79-.63a6.43,6.43,0,0,0-1.47-1.32,6.49,6.49,0,0,0-3.57-1.07Z"/><path class="cls-6" d="M38.83,21.67a1.42,1.42,0,0,1,.21-.22,1.68,1.68,0,0,1,.15.3A2.33,2.33,0,0,0,38.83,21.67Z"/><path class="cls-6" d="M57.19,24.08A9,9,0,0,1,59,27.92a7.28,7.28,0,0,0-5.41-2.41,7.44,7.44,0,0,0-2.06.3,7.31,7.31,0,0,0-7.26-6.53A7.23,7.23,0,0,0,39,21.45a8.79,8.79,0,0,0-7.83-4.76A8.86,8.86,0,0,0,23,22.22a29.78,29.78,0,0,0-9.82,4.94,6.43,6.43,0,0,0-1.47-1.32,6.52,6.52,0,0,0-10.1,5.45v0h0c-.11-2.24.07-5.15,1.9-6.44,1.52-1.09,2.85-.08,4.4-1.21,2.37-1.72.69-5.09,3-7.15,1.35-1.22,2.14-.22,6.8-1.34,3.84-.94,4.27-1.85,6.46-1.65,2.67.25,2.82,1.68,5,1.68,3.26,0,4.2-3,6.58-2.64s1.94,3.27,4.64,4.57a.26.26,0,0,0,.09.05,4.41,4.41,0,0,0,1.36.38c3,.43,5.74-1.76,7.61-.05.83.76.29,1.19,1.26,2.53C52.6,22.64,55.09,21.61,57.19,24.08Z"/><path class="cls-6" d="M61.83,38.71a8.29,8.29,0,0,1-1,1.71,28.78,28.78,0,0,0-1.45-3.19,7.33,7.33,0,0,0,1.37-3.15,4.35,4.35,0,0,1,1.44,2.24A3.88,3.88,0,0,1,61.83,38.71Z"/><path d="M20.37,17.14a6.79,6.79,0,0,1,3.15.77,10.76,10.76,0,0,0-1.94,2.65,32.07,32.07,0,0,0-8,3.9c0-.15,0-.32,0-.48a6.85,6.85,0,0,1,6.84-6.84m0-2A8.84,8.84,0,0,0,11.53,24a8.29,8.29,0,0,0,.21,1.86,6.43,6.43,0,0,1,1.47,1.32A29.78,29.78,0,0,1,23,22.22a8.69,8.69,0,0,1,3.74-4.32,8.77,8.77,0,0,0-6.4-2.76Z"/><path class="cls-6" d="M39,21.45a1.42,1.42,0,0,0-.21.22,29.72,29.72,0,0,0-6.45-.7h-.76a25.54,25.54,0,0,0-2.91.15A27.45,27.45,0,0,0,23,22.22a8.86,8.86,0,0,1,8.18-5.53A8.79,8.79,0,0,1,39,21.45Z"/><path class="cls-6" d="M39.19,21.75a2.33,2.33,0,0,0-.36-.08,1.42,1.42,0,0,1,.21-.22A1.68,1.68,0,0,1,39.19,21.75Z"/><path d="M44.44,21.28a5.34,5.34,0,0,1,3.77,1.8,33.36,33.36,0,0,0-3.77-1.8m-.23-2A7.22,7.22,0,0,0,39,21.45a1.68,1.68,0,0,1,.15.3A30.1,30.1,0,0,1,49.88,26.5c.53.36,1,.76,1.54,1.17a5.67,5.67,0,0,0,.1-1.09c0-.25,0-.51,0-.77a7.31,7.31,0,0,0-7.27-6.53Z"/><path d="M39,21.45a1.42,1.42,0,0,0-.21.22,2.33,2.33,0,0,1,.36.08,1.68,1.68,0,0,0-.15-.3Z"/><path class="cls-6" d="M60.84,32.81a6.59,6.59,0,0,1-.12,1.27,7.33,7.33,0,0,1-1.37,3.15,30.32,30.32,0,0,0-7.93-9.56,5.67,5.67,0,0,0,.1-1.09c0-.25,0-.51,0-.77a7.44,7.44,0,0,1,2.06-.3A7.28,7.28,0,0,1,59,27.92h0A7.21,7.21,0,0,1,60.84,32.81Z"/><path class="cls-6" d="M62.86,51.46H1.14A30.47,30.47,0,0,1,3.53,39.57c.4-.91.83-1.81,1.31-2.68a30.58,30.58,0,0,1,5.22-7,29.59,29.59,0,0,1,2.36-2.11c.26-.23.53-.43.79-.63A29.78,29.78,0,0,1,23,22.22a27.45,27.45,0,0,1,5.68-1.1A25.54,25.54,0,0,1,31.62,21h.76a29.72,29.72,0,0,1,6.45.7,2.33,2.33,0,0,1,.36.08A30.1,30.1,0,0,1,49.88,26.5c.53.36,1,.76,1.54,1.17a30.32,30.32,0,0,1,7.93,9.56,28.78,28.78,0,0,1,1.45,3.19,29.72,29.72,0,0,1,1.67,6.12A30.63,30.63,0,0,1,62.86,51.46Z"/><path class="cls-6" d="M17.22,30.63s-7,4-9,14.64"/><path class="cls-6" d="M47,30.63s7,4,9,14.64"/></g><g id="Shadow" class="cls-7"><path d="M62.47,46.54a29.72,29.72,0,0,0-1.67-6.12,8.29,8.29,0,0,0,1-1.71,3.88,3.88,0,0,0,.33-2.39,4.35,4.35,0,0,0-1.44-2.24,6.59,6.59,0,0,0,.12-1.27A7.21,7.21,0,0,0,59,27.93h0a9,9,0,0,0-1.76-3.84c-2.1-2.47-4.59-1.44-6.45-4-1-1.34-.43-1.77-1.26-2.53-1.87-1.71-4.66.48-7.61.05a4.41,4.41,0,0,1-1.36-.38.26.26,0,0,1-.09-.05c-2.7-1.3-2.34-4.18-4.64-4.57s-3.32,2.64-6.58,2.64c-2.22,0-2.37-1.43-5-1.68-2.19-.2-2.62.71-6.46,1.65-.54.13-1,.23-1.45.31a4.7,4.7,0,0,0,1.87,1.65.26.26,0,0,0,.09.05,4.55,4.55,0,0,0,1.37.38c3,.43,5.74-1.76,7.6-.05.83.76.29,1.19,1.26,2.53,1.86,2.59,4.35,1.56,6.45,4a8.89,8.89,0,0,1,1.76,3.84h0a7.21,7.21,0,0,1,1.89,4.88,6.59,6.59,0,0,1-.12,1.27,4.43,4.43,0,0,1,1.45,2.24,4,4,0,0,1-.33,2.39,8.75,8.75,0,0,1-1,1.71,29.11,29.11,0,0,1,1.67,6.12,30.62,30.62,0,0,1,.4,4.92H62.86A30.63,30.63,0,0,0,62.47,46.54Z"/></g><g id="Highligth" class="cls-8"><path class="cls-9" d="M23.51,39.57c0-1.64.17-2.55.09-3.61a6.4,6.4,0,0,1-2-4.63h0c-.12-2.24.07-5.15,1.89-6.44,1.53-1.09,2.86-.08,4.41-1.21,2.37-1.72.69-5.09,3-7.15,1.35-1.22,2.15-.22,6.8-1.34l.58-.15c-.68-1.13-1.11-2.23-2.47-2.46-2.38-.39-3.32,2.64-6.58,2.64-2.22,0-2.37-1.43-5-1.68-2.19-.2-2.62.71-6.46,1.65-4.66,1.12-5.45.12-6.8,1.34-2.29,2.06-.61,5.43-3,7.15-1.55,1.13-2.88.12-4.4,1.21-1.83,1.29-2,4.2-1.9,6.44h0a6.4,6.4,0,0,0,2,4.63c.08,1.06-.12,2-.09,3.61A30.47,30.47,0,0,0,1.14,51.46h20a30.62,30.62,0,0,1,.4-4.92A30,30,0,0,1,23.51,39.57Z"/></g></g></g></svg>