<svg width="96" height="97" viewBox="0 0 96 97" fill="none" xmlns="http://www.w3.org/2000/svg">
<path d="M65.1392 83.926C65.1392 86.1073 57.4563 87.8757 47.979 87.8757C38.5017 87.8757 30.8188 86.1073 30.8188 83.926C30.8188 81.7447 38.5017 79.9763 47.979 79.9763C57.4563 79.9763 65.1392 81.7447 65.1392 83.926Z" fill="#A0D6ED"/>
<path fill-rule="evenodd" clip-rule="evenodd" d="M60.5617 88.6679C57.2701 89.4255 52.8225 89.8757 47.979 89.8757C43.1355 89.8757 38.6879 89.4255 35.3963 88.6679C33.7666 88.2928 32.3096 87.8178 31.2114 87.2201C30.6634 86.9219 30.1103 86.5429 29.6728 86.0509C29.2243 85.5464 28.8188 84.8271 28.8188 83.926C28.8188 83.0249 29.2243 82.3056 29.6728 81.8011C30.1103 81.3091 30.6634 80.9301 31.2114 80.6319C32.3096 80.0342 33.7666 79.5592 35.3963 79.1841C38.6879 78.4265 43.1355 77.9763 47.979 77.9763C52.8225 77.9763 57.2701 78.4265 60.5617 79.1841C62.1914 79.5592 63.6484 80.0342 64.7466 80.6319C65.2946 80.9301 65.8477 81.3091 66.2852 81.8011C66.7337 82.3056 67.1392 83.0249 67.1392 83.926C67.1392 84.8271 66.7337 85.5464 66.2852 86.0509C65.8477 86.5429 65.2946 86.9219 64.7466 87.2201C63.6484 87.8178 62.1914 88.2928 60.5617 88.6679ZM47.979 87.8757C57.4563 87.8757 65.1392 86.1073 65.1392 83.926C65.1392 81.7447 57.4563 79.9763 47.979 79.9763C38.5017 79.9763 30.8188 81.7447 30.8188 83.926C30.8188 86.1073 38.5017 87.8757 47.979 87.8757Z" fill="#377894"/>
<path d="M51.7819 83.5589C51.7819 84.8039 47.3969 85.8132 41.9879 85.8132C36.5788 85.8132 32.1938 84.8039 32.1938 83.5589C32.1938 82.3139 36.5788 81.3047 41.9879 81.3047C47.3969 81.3047 51.7819 82.3139 51.7819 83.5589Z" fill="#D7F3FF"/>
<path d="M46.4375 47.8794C46.4375 47.0165 47.1371 46.3169 48 46.3169C48.8629 46.3169 49.5625 47.0164 49.5625 47.8794V81.3635C49.5625 82.2265 48.8629 82.926 48 82.926C47.1371 82.926 46.4375 82.2265 46.4375 81.3635V47.8794Z" fill="#A0D6ED"/>
<path fill-rule="evenodd" clip-rule="evenodd" d="M51.5625 47.8794V81.3635C51.5625 83.331 49.9675 84.926 48 84.926C46.0325 84.926 44.4375 83.331 44.4375 81.3635V47.8794C44.4375 45.9119 46.0325 44.3169 48 44.3169C49.9675 44.3169 51.5625 45.9119 51.5625 47.8794ZM48 46.3169C47.1371 46.3169 46.4375 47.0165 46.4375 47.8794V81.3635C46.4375 82.2265 47.1371 82.926 48 82.926C48.8629 82.926 49.5625 82.2265 49.5625 81.3635V47.8794C49.5625 47.0164 48.8629 46.3169 48 46.3169Z" fill="#649DB6"/>
<path fill-rule="evenodd" clip-rule="evenodd" d="M47.25 59.8635C47.8023 59.8635 48.25 60.3112 48.25 60.8635V70.2385C48.25 70.7908 47.8023 71.2385 47.25 71.2385C46.6977 71.2385 46.25 70.7908 46.25 70.2385V60.8635C46.25 60.3112 46.6977 59.8635 47.25 59.8635Z" fill="#C8EFFF"/>
<path d="M30.736 14.0509H65.1933L69.4705 39.2777C70.8267 44.7422 67.4705 48.7333 62.1128 51.5247C57.1404 54.1154 53.5804 54.6171 47.9647 54.6171C42.3489 54.6171 38.8249 54.0451 33.8165 51.5247C30.2115 49.7106 25.0767 46.1172 26.4588 39.2777L30.736 14.0509Z" fill="#BBE9FD"/>
<path fill-rule="evenodd" clip-rule="evenodd" d="M28.7641 13.7166C28.9272 12.7547 29.7604 12.0509 30.736 12.0509H65.1933C66.1689 12.0509 67.0021 12.7547 67.1652 13.7166L71.4303 38.8721C72.2172 42.1254 71.6078 45.036 69.9787 47.5051C68.3828 49.9239 65.8812 51.8165 63.0369 53.2984C57.6899 56.0843 53.7836 56.6171 47.9647 56.6171C42.12 56.6171 38.2707 56.0052 32.9174 53.3113C31.0158 52.3543 28.5258 50.843 26.6971 48.5242C24.812 46.134 23.6861 42.9474 24.492 38.9135L28.7641 13.7166ZM26.4588 39.2777C25.0767 46.1172 30.2115 49.7106 33.8165 51.5247C38.8249 54.0451 42.3489 54.6171 47.9647 54.6171C53.5804 54.6171 57.1404 54.1154 62.1128 51.5247C67.4705 48.7333 70.8267 44.7422 69.4705 39.2777L65.1933 14.0509H30.736L26.4588 39.2777Z" fill="#6BB3D1"/>
<path d="M47.9647 54.6171C53.5804 54.6171 57.1404 54.1154 62.1128 51.5247C67.4705 48.7333 70.8267 44.7422 69.4705 39.2777L68.0133 30.683H27.916L26.4588 39.2777C25.0767 46.1172 30.2115 49.7106 33.8165 51.5247C38.8249 54.0451 42.3489 54.6171 47.9647 54.6171Z" fill="#99130C"/>
<path fill-rule="evenodd" clip-rule="evenodd" d="M68.0133 30.683L69.4705 39.2777C70.8267 44.7422 67.4705 48.7333 62.1128 51.5247C57.1404 54.1154 53.5804 54.6171 47.9647 54.6171C42.3489 54.6171 38.8249 54.0451 33.8165 51.5247C30.2115 49.7106 25.0767 46.1172 26.4588 39.2777L27.916 30.683H68.0133ZM24.492 38.9135C23.6861 42.9474 24.812 46.134 26.6971 48.5242C28.5258 50.843 31.0158 52.3543 32.9174 53.3113C38.2707 56.0052 42.12 56.6171 47.9647 56.6171C53.7836 56.6171 57.6899 56.0843 63.0369 53.2984C65.8812 51.8165 68.3828 49.9239 69.9787 47.5051C71.6078 45.036 72.2172 42.1254 71.4303 38.8721L69.9851 30.3487C69.8221 29.3868 68.9888 28.683 68.0133 28.683H27.916C26.9405 28.683 26.1073 29.3868 25.9442 30.3487L24.492 38.9135Z" fill="#5B0501"/>
<path d="M40.6876 46.195C40.6876 49.7578 37.6563 50.5834 34.3126 49.695C30.9688 48.8066 28.0625 45.7575 27.7188 42.5074C27.3751 39.2573 28.5 36.0073 31.8751 36.7575C35.2501 37.5077 40.6876 42.6322 40.6876 46.195Z" fill="#780A04"/>
<path d="M65.1392 13.676C65.1392 15.8573 57.4563 17.6257 47.979 17.6257C38.5017 17.6257 30.8188 15.8573 30.8188 13.676C30.8188 11.4947 38.5017 9.72632 47.979 9.72632C57.4563 9.72632 65.1392 11.4947 65.1392 13.676Z" fill="#D7F3FF"/>
<path fill-rule="evenodd" clip-rule="evenodd" d="M60.5617 18.4179C57.2701 19.1755 52.8225 19.6257 47.979 19.6257C43.1355 19.6257 38.6879 19.1755 35.3963 18.4179C33.7666 18.0428 32.3096 17.5678 31.2114 16.9701C30.6634 16.6719 30.1103 16.2929 29.6728 15.8009C29.2243 15.2964 28.8188 14.5771 28.8188 13.676C28.8188 12.7749 29.2243 12.0556 29.6728 11.5511C30.1103 11.0591 30.6634 10.6801 31.2114 10.3819C32.3096 9.78424 33.7666 9.30922 35.3963 8.93411C38.6879 8.17651 43.1355 7.72632 47.979 7.72632C52.8225 7.72632 57.2701 8.17651 60.5617 8.93411C62.1914 9.30922 63.6484 9.78424 64.7466 10.3819C65.2946 10.6801 65.8477 11.0591 66.2852 11.5511C66.7337 12.0556 67.1392 12.7749 67.1392 13.676C67.1392 14.5771 66.7337 15.2964 66.2852 15.8009C65.8477 16.2929 65.2946 16.6719 64.7466 16.9701C63.6484 17.5678 62.1914 18.0428 60.5617 18.4179ZM47.979 17.6257C57.4563 17.6257 65.1392 15.8573 65.1392 13.676C65.1392 11.4947 57.4563 9.72632 47.979 9.72632C38.5017 9.72632 30.8188 11.4947 30.8188 13.676C30.8188 15.8573 38.5017 17.6257 47.979 17.6257Z" fill="#6BB3D1"/>
<path fill-rule="evenodd" clip-rule="evenodd" d="M48.0001 11.598C48.0087 11.0458 48.4633 10.6051 49.0155 10.6136C55.5965 10.7157 60.0177 12.3532 61.5165 13.2572C61.9894 13.5425 62.1415 14.1571 61.8563 14.63C61.571 15.1029 60.9564 15.2551 60.4835 14.9698C59.3573 14.2905 55.3035 12.7114 48.9845 12.6134C48.4323 12.6048 47.9916 12.1502 48.0001 11.598Z" fill="white"/>
<path d="M65.3267 41.3672C65.3267 42.7479 64.2074 43.8672 62.8267 43.8672C61.4459 43.8672 60.3267 42.7479 60.3267 41.3672C60.3267 39.9865 61.4459 38.8672 62.8267 38.8672C64.2074 38.8672 65.3267 39.9865 65.3267 41.3672Z" fill="#E3160C"/>
<path d="M61.5142 47.2734C61.5142 48.2572 60.7167 49.0547 59.7329 49.0547C58.7492 49.0547 57.9517 48.2572 57.9517 47.2734C57.9517 46.2897 58.7492 45.4922 59.7329 45.4922C60.7167 45.4922 61.5142 46.2897 61.5142 47.2734Z" fill="#E3160C"/>
<path d="M56.6704 46.7891C56.6704 47.5355 56.0653 48.1406 55.3188 48.1406C54.5724 48.1406 53.9673 47.5355 53.9673 46.7891C53.9673 46.0426 54.5724 45.4375 55.3188 45.4375C56.0653 45.4375 56.6704 46.0426 56.6704 46.7891Z" fill="#E3160C"/>
<path d="M61.6782 36.6484C61.6782 37.3949 61.0731 38 60.3267 38C59.5802 38 58.9751 37.3949 58.9751 36.6484C58.9751 35.902 59.5802 35.2969 60.3267 35.2969C61.0731 35.2969 61.6782 35.902 61.6782 36.6484Z" fill="#E3160C"/>
<path d="M62.3892 32.2812C62.3892 32.7257 62.0289 33.0859 61.5845 33.0859C61.1401 33.0859 60.7798 32.7257 60.7798 32.2812C60.7798 31.8368 61.1401 31.4766 61.5845 31.4766C62.0289 31.4766 62.3892 31.8368 62.3892 32.2812Z" fill="#E3160C"/>
<path d="M66.1313 30.0623C66.1313 30.5067 65.7711 30.8669 65.3267 30.8669C64.8822 30.8669 64.522 30.5067 64.522 30.0623C64.522 29.6178 64.8822 29.2576 65.3267 29.2576C65.7711 29.2576 66.1313 29.6178 66.1313 30.0623Z" fill="#E3160C"/>
<path d="M53.5063 49.2656C53.5063 49.71 53.1461 50.0703 52.7017 50.0703C52.2572 50.0703 51.897 49.71 51.897 49.2656C51.897 48.8212 52.2572 48.4609 52.7017 48.4609C53.1461 48.4609 53.5063 48.8212 53.5063 49.2656Z" fill="#E3160C"/>
<path d="M49.6094 51.7969C49.6094 52.2413 49.2491 52.6016 48.8047 52.6016C48.3603 52.6016 48 52.2413 48 51.7969C48 51.3525 48.3603 50.9922 48.8047 50.9922C49.2491 50.9922 49.6094 51.3525 49.6094 51.7969Z" fill="#E3160C"/>
<path d="M53.9673 43.8672C53.9673 44.3116 53.607 44.6719 53.1626 44.6719C52.7182 44.6719 52.3579 44.3116 52.3579 43.8672C52.3579 43.4228 52.7182 43.0625 53.1626 43.0625C53.607 43.0625 53.9673 43.4228 53.9673 43.8672Z" fill="#E3160C"/>
<path d="M57.3579 36.8512C57.3579 37.2956 56.9976 37.6559 56.5532 37.6559C56.1088 37.6559 55.7485 37.2956 55.7485 36.8512C55.7485 36.4068 56.1088 36.0465 56.5532 36.0465C56.9976 36.0465 57.3579 36.4068 57.3579 36.8512Z" fill="#E3160C"/>
<path d="M58.4517 41.3672C58.4517 42.3509 57.6542 43.1484 56.6704 43.1484C55.6867 43.1484 54.8892 42.3509 54.8892 41.3672C54.8892 40.3834 55.6867 39.5859 56.6704 39.5859C57.6542 39.5859 58.4517 40.3834 58.4517 41.3672Z" fill="#E3160C"/>
<path d="M67.1079 34.8672C67.1079 35.8509 66.3104 36.6484 65.3267 36.6484C64.3429 36.6484 63.5454 35.8509 63.5454 34.8672C63.5454 33.8834 64.3429 33.0859 65.3267 33.0859C66.3104 33.0859 67.1079 33.8834 67.1079 34.8672Z" fill="#E3160C"/>
<path d="M68.5767 40.1016C68.5767 40.6107 68.1639 41.0234 67.6548 41.0234C67.1456 41.0234 66.7329 40.6107 66.7329 40.1016C66.7329 39.5924 67.1456 39.1797 67.6548 39.1797C68.1639 39.1797 68.5767 39.5924 68.5767 40.1016Z" fill="#E3160C"/>
<path d="M65.3267 45.8672C65.3267 46.3763 64.9139 46.7891 64.4048 46.7891C63.8956 46.7891 63.4829 46.3763 63.4829 45.8672C63.4829 45.358 63.8956 44.9453 64.4048 44.9453C64.9139 44.9453 65.3267 45.358 65.3267 45.8672Z" fill="#E3160C"/>
<path d="M56.6704 50.9922C56.6704 51.5013 56.2577 51.9141 55.7485 51.9141C55.2394 51.9141 54.8267 51.5013 54.8267 50.9922C54.8267 50.483 55.2394 50.0703 55.7485 50.0703C56.2577 50.0703 56.6704 50.483 56.6704 50.9922Z" fill="#E3160C"/>
<path d="M68 30.7948C68 33.3351 59.0527 35.3945 48.0156 35.3945C36.9786 35.3945 28.0312 33.3351 28.0312 30.7948C28.0312 28.2544 36.9786 26.1951 48.0156 26.1951C59.0527 26.1951 68 28.2544 68 30.7948Z" fill="#C12F28"/>
<path fill-rule="evenodd" clip-rule="evenodd" d="M62.5953 35.9963C58.7927 36.8716 53.639 37.3945 48.0156 37.3945C42.3923 37.3945 37.2386 36.8716 33.4359 35.9963C31.5507 35.5624 29.8869 35.0173 28.6458 34.3419C28.0263 34.0048 27.4177 33.5851 26.9426 33.0507C26.4565 32.5039 26.0312 31.7408 26.0312 30.7948C26.0312 29.8488 26.4565 29.0857 26.9426 28.5389C27.4177 28.0045 28.0263 27.5847 28.6458 27.2476C29.8869 26.5722 31.5507 26.0272 33.4359 25.5933C37.2386 24.718 42.3923 24.1951 48.0156 24.1951C53.639 24.1951 58.7927 24.718 62.5953 25.5933C64.4806 26.0272 66.1444 26.5722 67.3855 27.2476C68.005 27.5847 68.6136 28.0045 69.0887 28.5389C69.5748 29.0857 70 29.8488 70 30.7948C70 31.7408 69.5748 32.5039 69.0887 33.0507C68.6136 33.5851 68.005 34.0048 67.3855 34.3419C66.1444 35.0173 64.4806 35.5624 62.5953 35.9963ZM48.0156 35.3945C59.0527 35.3945 68 33.3351 68 30.7948C68 28.2544 59.0527 26.1951 48.0156 26.1951C36.9786 26.1951 28.0312 28.2544 28.0312 30.7948C28.0312 33.3351 36.9786 35.3945 48.0156 35.3945Z" fill="#6C0905"/>
<path d="M52.7812 31.4766C52.7812 32.9424 47.6185 34.1307 41.25 34.1307C34.8815 34.1307 29.7188 32.9424 29.7188 31.4766C29.7188 30.0108 34.8815 28.8225 41.25 28.8225C47.6185 28.8225 52.7812 30.0108 52.7812 31.4766Z" fill="#A91A13"/>
<path fill-rule="evenodd" clip-rule="evenodd" d="M51.7531 28.347C51.7968 27.7964 52.2786 27.3855 52.8291 27.4292C55.9711 27.6786 61.1575 28.3094 64.3221 29.628C64.8319 29.8404 65.073 30.4259 64.8606 30.9357C64.6482 31.4455 64.0627 31.6866 63.5529 31.4742C60.7175 30.2928 55.8289 29.6736 52.6709 29.4229C52.1203 29.3792 51.7094 28.8975 51.7531 28.347Z" fill="#F93F35"/>
<path fill-rule="evenodd" clip-rule="evenodd" d="M30.4683 37.0127C31.0073 37.1332 31.3465 37.6678 31.226 38.2068L31.2249 38.2117L31.2209 38.2297L31.205 38.303C31.1912 38.3676 31.1712 38.4625 31.1471 38.5814C31.0988 38.8194 31.0344 39.1518 30.9701 39.5281C30.8386 40.298 30.7188 41.1882 30.7188 41.8323C30.7187 43.1289 31.0336 44.371 32.0161 45.4353C32.3907 45.8411 32.3654 46.4738 31.9595 46.8484C31.5537 47.223 30.9211 47.1977 30.5465 46.7919C29.1289 45.2562 28.7187 43.4732 28.7188 41.8323C28.7188 41.0077 28.8646 39.976 28.9987 39.1912C29.0672 38.7902 29.1357 38.437 29.187 38.1839C29.2127 38.0571 29.2342 37.955 29.2494 37.884L29.2673 37.8015L29.2722 37.7792L29.274 37.7712C29.274 37.7711 29.2742 37.7703 30.25 37.9886L29.274 37.7712C29.3945 37.2322 29.9294 36.8921 30.4683 37.0127Z" fill="#E8291F"/>
<path fill-rule="evenodd" clip-rule="evenodd" d="M33.4851 19.2536C34.0291 19.3489 34.3928 19.8671 34.2975 20.4111L32.7975 28.9736C32.7022 29.5176 32.1839 29.8814 31.6399 29.7861C31.0959 29.6908 30.7322 29.1725 30.8275 28.6285L32.3275 20.066C32.4228 19.522 32.9411 19.1583 33.4851 19.2536Z" fill="white"/>
</svg>
